<?xml version="1.0" encoding="utf-8"?>
<!-- Generator: Adobe Illustrator 16.0.2, SVG Export Plug-In . SVG Version: 6.00 Build 0)  -->
<!DOCTYPE svg PUBLIC "-//W3C//DTD SVG 1.1//EN" "http://www.w3.org/Graphics/SVG/1.1/DTD/svg11.dtd">
<svg version="1.1" id="Layer_1" xmlns="http://www.w3.org/2000/svg" xmlns:xlink="http://www.w3.org/1999/xlink" x="0px" y="0px"
	 width="595.28px" height="651.97px" viewBox="0 0 595.28 651.97" enable-background="new 0 0 595.28 651.97" xml:space="preserve">
<g opacity="0.5">
	<g>
		<defs>
			<rect id="SVGID_1_" x="187.059" y="22.76" width="74.98" height="95.108"/>
		</defs>
		<clipPath id="SVGID_2_">
			<use xlink:href="#SVGID_1_"  overflow="visible"/>
		</clipPath>
		<path clip-path="url(#SVGID_2_)" fill="#2B79B5" d="M187.479,117.805l74.138-42.228c0.234-0.133,0.42-0.427,0.42-0.658V23.003
			c0-0.231-0.186-0.311-0.42-0.182l-74.138,42.229c-0.231,0.132-0.42,0.428-0.42,0.657v51.918
			C187.059,117.857,187.248,117.938,187.479,117.805"/>
		<path clip-path="url(#SVGID_2_)" fill="#FFFFFF" d="M190.318,114.333l68.462-38.997c0.205-0.115,0.371-0.375,0.371-0.58V30.982
			c0-0.205-0.166-0.277-0.371-0.16l-68.462,38.994c-0.207,0.118-0.372,0.379-0.372,0.584v43.772
			C189.946,114.377,190.111,114.448,190.318,114.333"/>
		<polygon clip-path="url(#SVGID_2_)" fill="#2B79B5" points="203.578,71.174 254.237,42.319 254.237,40.468 203.578,69.323 		"/>
		<polygon clip-path="url(#SVGID_2_)" fill="#2B79B5" points="223.244,65.913 254.237,48.261 254.237,46.411 223.244,64.062 		"/>
		<polygon clip-path="url(#SVGID_2_)" fill="#2B79B5" points="251.2,54.157 254.237,52.428 254.237,50.577 251.2,52.306 		"/>
		<polygon clip-path="url(#SVGID_2_)" fill="#42B8D4" points="246.18,57.016 249.219,55.287 249.219,53.435 246.18,55.165 		"/>
		<polygon clip-path="url(#SVGID_2_)" fill="#F75D23" points="236.254,71.002 249.219,63.618 249.219,61.767 236.254,69.151 		"/>
		<polygon clip-path="url(#SVGID_2_)" fill="#F75D23" points="236.254,75.169 249.219,67.785 249.219,65.934 236.254,73.318 		"/>
		<polygon clip-path="url(#SVGID_2_)" fill="#F75D23" points="200.661,95.441 205.704,92.567 205.704,90.716 200.661,93.59 		"/>
		<polygon clip-path="url(#SVGID_2_)" fill="#F75D23" points="236.254,79.334 249.219,71.95 249.219,70.099 236.254,77.483 		"/>
		<polygon clip-path="url(#SVGID_2_)" fill="#F75D23" points="200.661,99.606 213.625,92.222 213.625,90.371 200.661,97.755 		"/>
		<polygon clip-path="url(#SVGID_2_)" fill="#F75D23" points="236.254,83.5 249.219,76.117 249.219,74.265 236.254,81.649 		"/>
		<polygon clip-path="url(#SVGID_2_)" fill="#F75D23" points="200.661,103.773 228.11,88.138 228.11,86.287 200.661,101.921 		"/>
		<polygon clip-path="url(#SVGID_2_)" fill="#42B8D4" points="241.058,59.934 244.095,58.204 244.095,56.352 241.058,58.082 		"/>
		<polygon clip-path="url(#SVGID_2_)" fill="#42B8D4" points="235.909,62.866 238.946,61.137 238.946,59.285 235.909,61.014 		"/>
		<path clip-path="url(#SVGID_2_)" fill="#42B8D4" d="M200.511,61.804l2.308-1.313c0.202-0.114,0.366-0.371,0.366-0.574v-1.122
			c0-0.201-0.164-0.27-0.366-0.156l-2.308,1.313c-0.201,0.116-0.365,0.373-0.365,0.573v1.121
			C200.146,61.847,200.31,61.92,200.511,61.804"/>
		<path clip-path="url(#SVGID_2_)" fill="#42B8D4" d="M195.389,64.723l2.307-1.313c0.201-0.117,0.366-0.373,0.366-0.576v-1.119
			c0-0.202-0.165-0.273-0.366-0.158l-2.307,1.314c-0.202,0.115-0.366,0.373-0.366,0.573v1.12
			C195.023,64.765,195.187,64.837,195.389,64.723"/>
		<path clip-path="url(#SVGID_2_)" fill="#42B8D4" d="M190.24,67.654l2.306-1.313c0.203-0.116,0.366-0.372,0.366-0.574v-1.121
			c0-0.203-0.163-0.273-0.366-0.157l-2.306,1.313c-0.202,0.117-0.365,0.373-0.365,0.573v1.121
			C189.875,67.698,190.038,67.771,190.24,67.654"/>
		<polygon clip-path="url(#SVGID_2_)" fill="#42B8D4" points="230.479,65.959 233.515,64.23 233.515,62.378 230.479,64.107 		"/>
		<polygon clip-path="url(#SVGID_2_)" fill="#42B8D4" points="212.158,76.393 228.341,67.175 228.341,65.324 212.158,74.542 		"/>
		<polygon clip-path="url(#SVGID_2_)" fill="#2B79B5" points="251.2,58.324 254.237,56.594 254.237,54.743 251.2,56.473 		"/>
		<polygon clip-path="url(#SVGID_2_)" fill="#F98B23" points="201.673,86.532 249.219,59.452 249.219,57.601 201.673,84.68 		"/>
		<polygon clip-path="url(#SVGID_2_)" fill="#2B79B5" points="251.2,62.489 254.237,60.759 254.237,58.908 251.2,60.638 		"/>
		<polygon clip-path="url(#SVGID_2_)" fill="#2B79B5" points="251.2,66.655 254.237,64.926 254.237,63.074 251.2,64.804 		"/>
		<polygon clip-path="url(#SVGID_2_)" fill="#2B79B5" points="212.158,72.228 218.533,68.598 218.533,66.746 212.158,70.377 		"/>
		<polygon clip-path="url(#SVGID_2_)" fill="#2B79B5" points="197.126,74.849 201.305,72.47 201.305,70.619 197.126,72.997 		"/>
		<polygon clip-path="url(#SVGID_2_)" fill="#F98B23" points="194.859,90.412 199.04,88.033 199.04,86.182 194.859,88.561 		"/>
	</g>
</g>
<g opacity="0.5">
	<g>
		<defs>
			<rect id="SVGID_3_" x="455.914" y="96.525" width="74.98" height="95.106"/>
		</defs>
		<clipPath id="SVGID_4_">
			<use xlink:href="#SVGID_3_"  overflow="visible"/>
		</clipPath>
		<path clip-path="url(#SVGID_4_)" fill="#2B79B5" d="M530.475,191.569l-74.14-42.227c-0.232-0.132-0.421-0.428-0.421-0.66V96.767
			c0-0.231,0.188-0.312,0.421-0.183l74.14,42.229c0.232,0.133,0.42,0.428,0.42,0.66v51.916
			C530.895,191.621,530.707,191.701,530.475,191.569"/>
		<path clip-path="url(#SVGID_4_)" fill="#FFFFFF" d="M527.637,188.095L459.173,149.1c-0.204-0.116-0.37-0.376-0.37-0.581v-43.773
			c0-0.205,0.166-0.276,0.37-0.16l68.464,38.994c0.203,0.118,0.369,0.379,0.369,0.584v43.772
			C528.006,188.141,527.84,188.213,527.637,188.095"/>
		<polygon clip-path="url(#SVGID_4_)" fill="#2B79B5" points="514.374,144.938 463.717,116.084 463.717,114.234 514.374,143.086 		
			"/>
		<polygon clip-path="url(#SVGID_4_)" fill="#2B79B5" points="494.709,139.677 463.717,122.024 463.717,120.173 494.709,137.827 		
			"/>
		<polygon clip-path="url(#SVGID_4_)" fill="#2B79B5" points="466.754,127.921 463.717,126.192 463.717,124.34 466.754,126.07 		"/>
		<polygon clip-path="url(#SVGID_4_)" fill="#42B8D4" points="471.771,130.78 468.735,129.051 468.735,127.2 471.771,128.929 		"/>
		<polygon clip-path="url(#SVGID_4_)" fill="#F75D23" points="481.7,144.767 468.735,137.383 468.735,135.531 481.7,142.914 		"/>
		<polygon clip-path="url(#SVGID_4_)" fill="#F75D23" points="481.7,148.932 468.735,141.548 468.735,139.697 481.7,147.081 		"/>
		<polygon clip-path="url(#SVGID_4_)" fill="#F75D23" points="517.294,169.204 512.247,166.332 512.247,164.479 517.294,167.353 		
			"/>
		<polygon clip-path="url(#SVGID_4_)" fill="#F75D23" points="481.7,153.099 468.735,145.715 468.735,143.863 481.7,151.248 		"/>
		<polygon clip-path="url(#SVGID_4_)" fill="#F75D23" points="517.294,173.371 504.328,165.986 504.328,164.135 517.294,171.52 		
			"/>
		<polygon clip-path="url(#SVGID_4_)" fill="#F75D23" points="481.7,157.265 468.735,149.88 468.735,148.028 481.7,155.413 		"/>
		<polygon clip-path="url(#SVGID_4_)" fill="#F75D23" points="517.294,177.536 489.842,161.901 489.842,160.05 517.294,175.685 		
			"/>
		<polygon clip-path="url(#SVGID_4_)" fill="#42B8D4" points="476.896,133.697 473.858,131.968 473.858,130.117 476.896,131.846 		
			"/>
		<polygon clip-path="url(#SVGID_4_)" fill="#42B8D4" points="482.045,136.63 479.006,134.901 479.006,133.049 482.045,134.779 		
			"/>
		<path clip-path="url(#SVGID_4_)" fill="#42B8D4" d="M517.442,135.568l-2.307-1.313c-0.202-0.116-0.365-0.373-0.365-0.576v-1.119
			c0-0.202,0.163-0.273,0.365-0.157l2.307,1.313c0.202,0.114,0.366,0.373,0.366,0.573v1.122
			C517.809,135.612,517.645,135.685,517.442,135.568"/>
		<path clip-path="url(#SVGID_4_)" fill="#42B8D4" d="M522.563,138.485l-2.305-1.313c-0.202-0.114-0.365-0.371-0.365-0.574v-1.122
			c0-0.202,0.163-0.271,0.365-0.156l2.305,1.313c0.202,0.116,0.366,0.373,0.366,0.573v1.121
			C522.93,138.529,522.766,138.602,522.563,138.485"/>
		<path clip-path="url(#SVGID_4_)" fill="#42B8D4" d="M527.713,141.418l-2.307-1.313c-0.202-0.114-0.365-0.37-0.365-0.574v-1.121
			c0-0.203,0.163-0.271,0.365-0.156l2.307,1.313c0.202,0.116,0.365,0.373,0.365,0.573v1.12
			C528.078,141.463,527.915,141.534,527.713,141.418"/>
		<polygon clip-path="url(#SVGID_4_)" fill="#42B8D4" points="487.475,139.724 484.438,137.994 484.438,136.143 487.475,137.871 		
			"/>
		<polygon clip-path="url(#SVGID_4_)" fill="#42B8D4" points="505.795,150.158 489.611,140.94 489.611,139.088 505.795,148.307 		
			"/>
		<polygon clip-path="url(#SVGID_4_)" fill="#2B79B5" points="466.754,132.087 463.717,130.358 463.717,128.506 466.754,130.236 		
			"/>
		<polygon clip-path="url(#SVGID_4_)" fill="#F98B23" points="516.279,160.296 468.735,133.216 468.735,131.365 516.279,158.444 		
			"/>
		<polygon clip-path="url(#SVGID_4_)" fill="#2B79B5" points="466.754,136.253 463.717,134.524 463.717,132.673 466.754,134.402 		
			"/>
		<polygon clip-path="url(#SVGID_4_)" fill="#2B79B5" points="466.754,140.42 463.717,138.691 463.717,136.839 466.754,138.566 		
			"/>
		<polygon clip-path="url(#SVGID_4_)" fill="#2B79B5" points="505.795,145.991 499.42,142.361 499.42,140.51 505.795,144.14 		"/>
		<polygon clip-path="url(#SVGID_4_)" fill="#2B79B5" points="520.829,148.613 516.646,146.234 516.646,144.382 520.829,146.762 		
			"/>
		<polygon clip-path="url(#SVGID_4_)" fill="#F98B23" points="523.094,164.177 518.913,161.795 518.913,159.944 523.094,162.325 		
			"/>
	</g>
</g>
<g opacity="0.5">
	<g>
		<defs>
			<rect id="SVGID_5_" x="34.429" y="47.408" width="109.361" height="138.722"/>
		</defs>
		<clipPath id="SVGID_6_">
			<use xlink:href="#SVGID_5_"  overflow="visible"/>
		</clipPath>
		<path clip-path="url(#SVGID_6_)" fill="#2B79B5" d="M35.041,186.037l108.136-61.59c0.338-0.193,0.613-0.624,0.613-0.962v-75.72
			c0-0.338-0.274-0.456-0.613-0.264L35.041,109.089c-0.338,0.195-0.612,0.625-0.612,0.964v75.721
			C34.429,186.112,34.703,186.229,35.041,186.037"/>
		<path clip-path="url(#SVGID_6_)" fill="#FFFFFF" d="M39.181,180.97l99.854-56.875c0.3-0.17,0.544-0.55,0.544-0.848V59.399
			c0-0.298-0.244-0.401-0.544-0.231l-99.854,56.874c-0.3,0.172-0.541,0.551-0.541,0.851v63.845
			C38.64,181.038,38.881,181.14,39.181,180.97"/>
		<polygon clip-path="url(#SVGID_6_)" fill="#2B79B5" points="58.524,118.023 132.412,75.938 132.412,73.238 58.524,115.321 		"/>
		<polygon clip-path="url(#SVGID_6_)" fill="#2B79B5" points="87.207,110.35 132.412,84.604 132.412,81.902 87.207,107.65 		"/>
		<polygon clip-path="url(#SVGID_6_)" fill="#2B79B5" points="127.981,93.203 132.412,90.68 132.412,87.979 127.981,90.501 		"/>
		<polygon clip-path="url(#SVGID_6_)" fill="#42B8D4" points="120.66,97.372 125.091,94.849 125.091,92.149 120.66,94.673 		"/>
		<polygon clip-path="url(#SVGID_6_)" fill="#F75D23" points="106.181,117.772 125.091,107.001 125.091,104.301 106.181,115.072 		
			"/>
		<polygon clip-path="url(#SVGID_6_)" fill="#F75D23" points="106.181,123.849 125.091,113.078 125.091,110.377 106.181,121.149 		
			"/>
		<polygon clip-path="url(#SVGID_6_)" fill="#F75D23" points="54.267,153.416 61.627,149.226 61.627,146.524 54.267,150.717 		"/>
		<polygon clip-path="url(#SVGID_6_)" fill="#F75D23" points="106.181,129.926 125.091,119.154 125.091,116.455 106.181,127.225 		
			"/>
		<polygon clip-path="url(#SVGID_6_)" fill="#F75D23" points="54.267,159.492 73.178,148.722 73.178,146.022 54.267,156.793 		"/>
		<polygon clip-path="url(#SVGID_6_)" fill="#F75D23" points="106.181,136.002 125.091,125.23 125.091,122.531 106.181,133.3 		"/>
		<polygon clip-path="url(#SVGID_6_)" fill="#F75D23" points="54.267,165.569 94.301,142.768 94.301,140.065 54.267,162.869 		"/>
		<polygon clip-path="url(#SVGID_6_)" fill="#42B8D4" points="113.188,101.628 117.618,99.105 117.618,96.405 113.188,98.927 		"/>
		<polygon clip-path="url(#SVGID_6_)" fill="#42B8D4" points="105.679,105.905 110.109,103.382 110.109,100.682 105.679,103.203 		
			"/>
		<path clip-path="url(#SVGID_6_)" fill="#42B8D4" d="M54.048,104.357l3.366-1.917c0.293-0.166,0.533-0.541,0.533-0.836v-1.634
			c0-0.296-0.239-0.397-0.533-0.23l-3.366,1.916c-0.292,0.168-0.533,0.544-0.533,0.838v1.634
			C53.516,104.421,53.757,104.525,54.048,104.357"/>
		<path clip-path="url(#SVGID_6_)" fill="#42B8D4" d="M46.578,108.612l3.364-1.915c0.297-0.168,0.534-0.542,0.534-0.839v-1.634
			c0-0.293-0.237-0.397-0.534-0.229l-3.364,1.915c-0.295,0.167-0.532,0.545-0.532,0.838v1.634
			C46.046,108.677,46.283,108.78,46.578,108.612"/>
		<path clip-path="url(#SVGID_6_)" fill="#42B8D4" d="M39.069,112.889l3.364-1.915c0.296-0.167,0.533-0.543,0.533-0.839V108.5
			c0-0.292-0.237-0.396-0.533-0.229l-3.364,1.915c-0.295,0.168-0.532,0.544-0.532,0.838v1.635
			C38.538,112.953,38.774,113.056,39.069,112.889"/>
		<polygon clip-path="url(#SVGID_6_)" fill="#42B8D4" points="97.758,110.417 102.188,107.893 102.188,105.194 97.758,107.715 		"/>
		<polygon clip-path="url(#SVGID_6_)" fill="#42B8D4" points="71.038,125.636 94.642,112.192 94.642,109.493 71.038,122.934 		"/>
		<polygon clip-path="url(#SVGID_6_)" fill="#2B79B5" points="127.981,99.279 132.412,96.756 132.412,94.056 127.981,96.577 		"/>
		<polygon clip-path="url(#SVGID_6_)" fill="#F98B23" points="55.745,140.423 125.091,100.925 125.091,98.226 55.745,137.721 		"/>
		<polygon clip-path="url(#SVGID_6_)" fill="#2B79B5" points="127.981,105.355 132.412,102.833 132.412,100.133 127.981,102.654 		
			"/>
		<polygon clip-path="url(#SVGID_6_)" fill="#2B79B5" points="127.981,111.432 132.412,108.909 132.412,106.209 127.981,108.73 		
			"/>
		<polygon clip-path="url(#SVGID_6_)" fill="#2B79B5" points="71.038,119.559 80.337,114.264 80.337,111.561 71.038,116.857 		"/>
		<polygon clip-path="url(#SVGID_6_)" fill="#2B79B5" points="49.111,123.383 55.207,119.913 55.207,117.211 49.111,120.682 		"/>
		<polygon clip-path="url(#SVGID_6_)" fill="#F98B23" points="45.807,146.083 51.901,142.612 51.901,139.912 45.807,143.382 		"/>
	</g>
</g>
<path fill="#1B3C96" d="M304.927,459.074l-0.024-0.021c0,0,0.699-8.438,28.438-1.168l26.734,7.522
	c4.379,9.104,3.245,18.36,2.326,22.658c-0.327,1.536-1.274,2.842-2.636,3.622l-4.743,2.719c-1.714,0.982-3.826,0.964-5.523-0.048
	l-8.68-5.18c-0.712-0.427-1.208-1.093-1.634-1.805c-1.904-3.162-6.255-3.85-12.114-5.215c-0.512-0.117-1.029-0.234-1.511-0.365
	c-0.254-0.064-0.494-0.115-0.755-0.181c-0.793-0.206-1.408-0.439-1.927-0.687c-7.342-2.766-10.45-7.537-14.78-13.273
	C304.957,463.49,304.177,460.771,304.927,459.074"/>
<path fill="#12256B" d="M361.601,465.919c0.007,3.811-2.125,7.368-5.587,8.958c-2.804,1.291-6.148,2.206-9.07,2.406
	c-5.135,0.355-10.762-0.897-15.388-3.842c-4.575-2.906-7.23-8.069-7.203-13.492l0.382-84.45
	c-0.887-25.153,16.129-25.113,26.988-26.173c11.625-1.134,9.808,2.686,9.751,14.366L361.601,465.919z"/>
<path fill="#1B3C96" d="M268.32,481.725l-0.023-0.022c0,0,0.697-8.435,28.435-1.166l26.737,7.521
	c4.377,9.106,3.246,18.361,2.326,22.659c-0.327,1.536-1.276,2.842-2.638,3.625l-4.743,2.717c-1.714,0.981-3.827,0.963-5.523-0.049
	l-8.678-5.18c-0.714-0.427-1.207-1.093-1.635-1.804c-1.903-3.163-6.254-3.851-12.114-5.216c-0.511-0.117-1.031-0.233-1.509-0.364
	c-0.256-0.065-0.495-0.116-0.758-0.184c-0.793-0.202-1.405-0.437-1.924-0.684c-7.343-2.767-10.45-7.537-14.78-13.274
	C268.351,486.14,267.568,483.421,268.32,481.725"/>
<path fill="#12256B" d="M325.146,488.569c0.004,3.811-2.126,7.367-5.587,8.956c-2.804,1.293-6.151,2.208-9.07,2.407
	c-5.136,0.356-10.762-0.896-15.39-3.841c-4.573-2.909-7.228-8.069-7.203-13.489l0.384-84.453
	c-0.886-25.156,16.126-25.113,26.988-26.174c11.625-1.134,9.808,2.687,9.75,14.366L325.146,488.569z"/>
<g enable-background="new    ">
	<g>
		<defs>
			<rect id="SVGID_7_" x="224.976" y="360.022" width="20.439" height="179.574"/>
		</defs>
		<clipPath id="SVGID_8_">
			<use xlink:href="#SVGID_7_"  overflow="visible"/>
		</clipPath>
		<polygon clip-path="url(#SVGID_8_)" fill="#1B3C96" points="235.88,371.735 224.976,365.401 225.194,533.261 236.098,539.597 		
			"/>
		<polygon clip-path="url(#SVGID_8_)" fill="#67B7B6" points="245.197,366.356 234.292,360.02 224.976,365.399 235.88,371.735 		"/>
		<polygon clip-path="url(#SVGID_8_)" fill="#1B3C96" points="235.88,371.735 236.098,539.597 245.415,534.217 245.197,366.356 		
			"/>
	</g>
</g>
<g enable-background="new    ">
	<g>
		<defs>
			<rect id="SVGID_9_" x="112.302" y="336.018" width="20.438" height="138.34"/>
		</defs>
		<clipPath id="SVGID_10_">
			<use xlink:href="#SVGID_9_"  overflow="visible"/>
		</clipPath>
		<polygon clip-path="url(#SVGID_10_)" fill="#1B3C96" points="123.207,347.731 112.301,341.394 112.521,468.023 123.424,474.357 		
			"/>
		<polygon clip-path="url(#SVGID_10_)" fill="#67B7B6" points="132.522,342.352 121.618,336.015 112.302,341.394 123.207,347.731 		
			"/>
		<polygon clip-path="url(#SVGID_10_)" fill="#1B3C96" points="123.207,347.731 123.424,474.357 132.74,468.98 132.522,342.352 		
			"/>
	</g>
</g>
<g enable-background="new    ">
	<g>
		<defs>
			<rect id="SVGID_11_" x="480.238" y="257.215" width="20.439" height="138.344"/>
		</defs>
		<clipPath id="SVGID_12_">
			<use xlink:href="#SVGID_11_"  overflow="visible"/>
		</clipPath>
		<polygon clip-path="url(#SVGID_12_)" fill="#1B3C96" points="491.141,268.931 480.238,262.595 480.456,389.223 491.36,395.559 		
			"/>
		<polygon clip-path="url(#SVGID_12_)" fill="#67B7B6" points="500.458,263.551 489.556,257.215 480.238,262.593 491.141,268.932 		
			"/>
		<polygon clip-path="url(#SVGID_12_)" fill="#1B3C96" points="491.141,268.931 491.36,395.559 500.678,390.177 500.458,263.55 		
			"/>
	</g>
</g>
<polygon fill="#89BDDA" points="89.11,342.444 89.137,352.744 233.845,436.839 233.815,426.54 "/>
<polygon fill="#89BDDA" points="233.815,426.54 233.845,436.842 528.418,267.516 528.388,257.215 "/>
<polygon fill="#EDF1F3" points="89.11,342.444 233.815,426.54 528.388,257.214 383.681,173.122 "/>
<path fill="#89BDDA" d="M178.551,313.841l32.416,18.708c1.329,0.764,3.496,0.756,4.823-0.017l15.661-9.106
	c0.67-0.387,1-0.896,0.998-1.408c0.008,0.883,0.014,1.767,0.015,2.648c0.005,0.51-0.33,1.021-0.996,1.409l-15.663,9.106
	c-1.33,0.771-3.497,0.777-4.82,0.017l-32.417-18.709c-0.66-0.379-0.989-0.881-0.993-1.384c-0.003-0.881-0.008-1.763-0.014-2.645
	C177.563,312.963,177.893,313.463,178.551,313.841"/>
<path fill="#89BDDA" d="M185.311,308.516c-0.293,0.172-0.293,0.451-0.001,0.619c0.296,0.17,0.777,0.17,1.074-0.003l4.559-2.65
	c0.295-0.171,0.296-0.448,0-0.62c-0.295-0.17-0.774-0.168-1.07,0.002L185.311,308.516z"/>
<path fill="#CFDFEB" d="M194.222,301.945c1.325-0.771,3.496-0.78,4.818-0.018l32.418,18.709c1.324,0.764,1.32,2.019-0.008,2.79
	l-15.661,9.106c-1.327,0.772-3.497,0.781-4.823,0.017l-32.416-18.708c-1.326-0.764-1.319-2.021,0.01-2.791L194.222,301.945z
	 M208.726,329.641c0.528,0.305,1.394,0.303,1.925-0.006l15.775-9.171c0.531-0.31,0.531-0.812,0.001-1.116l-26.953-15.555
	c-0.528-0.306-1.394-0.299-1.928,0.008l-15.773,9.17c-0.532,0.31-0.532,0.813-0.002,1.115L208.726,329.641 M185.311,308.516
	c-0.293,0.172-0.293,0.451-0.001,0.619c0.296,0.17,0.777,0.17,1.074-0.003l4.559-2.65c0.295-0.171,0.296-0.448,0-0.62
	c-0.295-0.17-0.774-0.168-1.07,0.002L185.311,308.516z"/>
<path fill="#FFFFFF" d="M181.768,312.973c-0.526,0.307-0.526,0.808,0.003,1.112l29.534,17.02c0.928,0.536,2.445,0.532,3.37-0.005
	l14.594-8.485c0.784-0.457,0.783-1.202-0.003-1.653l-29.789-17.169c-0.531-0.307-1.396-0.304-1.923,0.003L181.768,312.973z"/>
<path fill="#89BDDA" d="M183.686,310.139c-0.282-0.161-0.279-0.425-0.014-0.597c0.294-0.17,0.781-0.177,1.075-0.006
	c0.286,0.166,0.282,0.43,0.016,0.6C184.462,310.308,183.983,310.311,183.686,310.139"/>
<path fill="#89BDDA" d="M210.3,352.174l47.463,27.801c1.466,0.844,3.866,0.837,5.333-0.02l26.776-15.564
	c0.737-0.428,1.106-0.993,1.103-1.558c0.006,0.978,0.01,1.953,0.016,2.93c0.004,0.563-0.363,1.127-1.102,1.556l-26.776,15.564
	c-1.469,0.854-3.867,0.863-5.329,0.02l-47.465-27.8c-0.727-0.42-1.09-0.974-1.097-1.53c-0.003-0.974-0.01-1.95-0.015-2.926
	C209.209,351.203,209.573,351.756,210.3,352.174"/>
<path fill="#CFDFEB" d="M237.09,333.525c1.467-0.854,3.865-0.865,5.327-0.02l47.464,27.8c1.463,0.846,1.458,2.232-0.007,3.085
	l-26.776,15.564c-1.468,0.856-3.868,0.863-5.333,0.02L210.3,352.174c-1.464-0.845-1.458-2.234,0.012-3.087L237.09,333.525z
	 M255.283,376.756c0.585,0.339,1.544,0.339,2.131-0.007l26.9-15.634c0.587-0.342,0.59-0.899,0.004-1.238l-41.42-24.312
	c-0.584-0.337-1.542-0.334-2.13,0.01l-26.903,15.635c-0.588,0.341-0.588,0.898-0.003,1.231L255.283,376.756"/>
<path fill="#FFFFFF" d="M213.859,351.213c-0.583,0.34-0.583,0.893,0.001,1.229l44.278,25.936c1.024,0.591,2.701,0.586,3.724-0.008
	l25.597-14.878c0.869-0.506,0.866-1.327-0.005-1.828l-44.557-26.098c-0.584-0.337-1.542-0.335-2.125,0.007L213.859,351.213z"/>
<path fill="#89BDDA" d="M224.774,342.187c-0.326,0.189-0.326,0.499-0.003,0.683c0.328,0.192,0.859,0.189,1.185,0l5.044-2.934
	c0.327-0.188,0.33-0.494,0-0.686c-0.324-0.188-0.857-0.185-1.182,0.005L224.774,342.187z"/>
<path fill="#89BDDA" d="M222.975,343.98c-0.311-0.181-0.307-0.469-0.017-0.659c0.327-0.19,0.865-0.196,1.189-0.009
	c0.319,0.185,0.313,0.473,0.016,0.663C223.835,344.168,223.302,344.17,222.975,343.98"/>
<path fill="#FFFFFF" d="M319.432,197.516c1.367-0.789,2.492-0.144,2.502,1.426l0.142,51.208c0.007,1.573-1.117,3.509-2.485,4.298
	l-80.708,46.599c-1.374,0.79-2.501,0.156-2.505-1.414l-0.146-51.21c-0.002-1.573,1.113-3.514,2.486-4.308L319.432,197.516z"/>
<path fill="#89BDDA" d="M379.527,287.995c0,0.058-0.006,0.115-0.016,0.177c-0.004,0.057-0.008,0.115-0.017,0.174
	c-0.008,0.053-0.026,0.105-0.036,0.158c-0.017,0.057-0.03,0.114-0.049,0.169c-0.019,0.046-0.04,0.095-0.063,0.143
	c-0.024,0.061-0.051,0.126-0.083,0.184c-0.019,0.046-0.05,0.088-0.074,0.129c-0.04,0.069-0.085,0.135-0.132,0.204
	c-0.03,0.04-0.066,0.079-0.099,0.118c-0.065,0.084-0.14,0.17-0.222,0.25c-0.041,0.037-0.076,0.078-0.119,0.117
	c-0.051,0.046-0.102,0.091-0.156,0.135c-0.057,0.048-0.115,0.095-0.18,0.14c-0.057,0.043-0.119,0.084-0.185,0.126
	c-0.091,0.067-0.188,0.127-0.293,0.192l-31.695,18.296l-0.004-1.908l-7.004-4.072l10.113-5.869l-0.002-0.755l0.656,0.379
	l13.743-7.977l-0.017-4.793l-6.429-3.72l-1.48,0.855l-0.004-1.709l-2.152-1.245l-4.275-2.475l-7.447-4.304l-1.859,1.081
	l-0.011-2.161l-6.429-3.716l-1.443,0.835l-0.003-1.667l-6.425-3.713l-6.66,3.863l0.006,1.477l-1.278-0.739l-6.656,3.867l0.001,1.47
	l-1.275-0.738l-6.661,3.872l0.002,1.472l-1.274-0.739l-6.652,3.869l0.004,1.475l-1.28-0.739l-6.666,3.864l0.006,1.472l-1.268-0.733
	l-6.667,3.867l0.003,1.468l-1.27-0.736l-6.664,3.869l0.001,1.47l-1.27-0.73l-6.659,3.862l0.002,1.471l-1.267-0.731l-6.668,3.861
	l0.014,4.797l3.726,2.153l-1.586,0.921l-0.005-1.667l-6.427-3.716l-6.662,3.87l0.016,4.793l6.422,3.715l1.442-0.837l0.006,1.667
	l6.425,3.722l1.442-0.837l0.006,1.669l6.432,3.717l1.429-0.835l0.006,1.669l6.434,3.714l1.476-0.855l0.003,1.712l6.428,3.719
	l14.119-8.191l-0.002-0.96l0.828,0.483l10.414-6.047l-0.003-1.098l0.945,0.55l3.809-2.209l0.006,1.838l6.989,4.068l-25.916,14.962
	c-0.257,0.147-0.538,0.274-0.823,0.387c-0.079,0.033-0.163,0.063-0.245,0.091c-0.187,0.065-0.379,0.126-0.576,0.176
	c-0.173,0.047-0.348,0.092-0.527,0.131c-0.247,0.051-0.497,0.095-0.749,0.126c-0.05,0.007-0.098,0.016-0.151,0.021
	c-0.327,0.034-0.654,0.052-0.989,0.056c-0.055,0-0.104,0.003-0.155,0.003c-0.323-0.003-0.648-0.024-0.964-0.058
	c-0.055-0.005-0.109-0.009-0.162-0.015c-0.315-0.038-0.626-0.09-0.928-0.161c-0.056-0.014-0.121-0.025-0.18-0.041
	c-0.291-0.073-0.572-0.156-0.841-0.259c-0.034-0.006-0.063-0.02-0.093-0.029c-0.316-0.121-0.619-0.262-0.899-0.427l-48.35-28.096
	c-1.131-0.656-1.696-1.518-1.699-2.384c0.005,1.599,0.01,3.196,0.016,4.792c0.001,0.864,0.565,1.727,1.696,2.384l48.354,28.095
	c0.27,0.161,0.566,0.3,0.875,0.418c0.004,0.005,0.014,0.005,0.017,0.009c0.035,0.013,0.069,0.025,0.097,0.033
	c0.193,0.071,0.389,0.139,0.59,0.193c0.083,0.024,0.168,0.04,0.25,0.059c0.063,0.017,0.121,0.031,0.186,0.047
	c0.057,0.016,0.113,0.031,0.173,0.045c0.19,0.037,0.383,0.068,0.582,0.092c0.056,0.013,0.114,0.017,0.17,0.021
	c0.051,0.006,0.098,0.009,0.146,0.019c0.084,0.007,0.169,0.017,0.25,0.022c0.196,0.017,0.386,0.029,0.578,0.032h0.149
	c0.05,0,0.104,0,0.154-0.003c0.097,0,0.198,0.003,0.294-0.004c0.218-0.009,0.432-0.025,0.647-0.045
	c0.019-0.003,0.035-0.003,0.054-0.006c0.049-0.007,0.1-0.016,0.146-0.022c0.18-0.022,0.36-0.043,0.536-0.075
	c0.075-0.014,0.141-0.04,0.216-0.052c0.173-0.035,0.344-0.079,0.515-0.125c0.104-0.031,0.214-0.049,0.317-0.08
	c0.097-0.029,0.184-0.067,0.277-0.104c0.077-0.021,0.155-0.056,0.233-0.088c0.287-0.109,0.569-0.235,0.824-0.388l84.06-48.531
	c0.066-0.04,0.132-0.073,0.196-0.115c0.036-0.026,0.064-0.053,0.101-0.073c0.064-0.041,0.125-0.083,0.185-0.129
	c0.063-0.047,0.119-0.091,0.179-0.141c0.052-0.045,0.102-0.085,0.15-0.127c0.021-0.022,0.046-0.038,0.065-0.059
	c0.022-0.02,0.04-0.044,0.063-0.07c0.077-0.081,0.153-0.164,0.223-0.243c0.014-0.022,0.04-0.05,0.056-0.067
	c0.013-0.016,0.019-0.035,0.031-0.046c0.052-0.073,0.095-0.137,0.137-0.209c0.019-0.034,0.045-0.065,0.061-0.095
	c0.006-0.012,0.011-0.022,0.017-0.032c0.034-0.065,0.057-0.132,0.087-0.195c0.015-0.036,0.036-0.07,0.049-0.104
	c0.002-0.011,0.004-0.017,0.005-0.026c0.023-0.06,0.037-0.126,0.052-0.189c0.012-0.038,0.023-0.079,0.03-0.117
	c0.004-0.01,0.004-0.014,0.004-0.026c0.014-0.06,0.017-0.122,0.02-0.18c0.005-0.044,0.012-0.088,0.012-0.132v-0.037
	C379.536,291.188,379.532,289.59,379.527,287.995"/>
<path fill="#CFDFEB" d="M377.839,285.613l-48.354-28.098c-2.273-1.322-6-1.318-8.287,0l-84.056,48.531
	c-2.291,1.324-2.302,3.473-0.027,4.801l48.35,28.096c2.264,1.318,5.993,1.322,8.282,0l84.059-48.53
	C380.09,289.091,380.1,286.93,377.839,285.613"/>
<polygon fill="#61A9CE" points="326.57,276.564 322.037,279.201 317.734,276.711 322.269,274.08 "/>
<polygon fill="#61A9CE" points="336.831,279.734 332.297,282.362 327.988,279.876 332.528,277.243 "/>
<polygon fill="#61A9CE" points="344.44,284.433 340.142,281.949 343.592,279.942 336.143,275.628 341.806,272.349 353.561,279.142 
	"/>
<polygon fill="#61A9CE" points="320.5,284.224 325.032,281.595 329.338,284.083 324.805,286.713 "/>
<polygon fill="#61A9CE" points="345.554,287.968 357.168,281.227 361.472,283.718 349.86,290.456 "/>
<polygon fill="#61A9CE" points="334.483,294.386 342.772,289.581 347.076,292.069 338.792,296.872 "/>
<polygon fill="#61A9CE" points="317.712,294.966 322.249,292.333 326.546,294.821 322.016,297.45 "/>
<polygon fill="#61A9CE" points="321.104,265.638 325.642,263.006 329.94,265.493 325.408,268.125 "/>
<polygon fill="#61A9CE" points="322.011,270.093 317.479,272.729 313.173,270.237 317.706,267.607 "/>
<polygon fill="#61A9CE" points="325.312,272.308 333.51,267.555 337.814,270.037 329.62,274.797 "/>
<polygon fill="#61A9CE" points="314.083,274.692 309.547,277.32 305.244,274.841 309.777,272.207 "/>
<polygon fill="#61A9CE" points="306.147,279.299 301.618,281.93 297.316,279.441 301.842,276.811 "/>
<polygon fill="#61A9CE" points="318.989,280.967 314.456,283.595 310.15,281.108 314.684,278.475 "/>
<polygon fill="#61A9CE" points="298.216,283.899 293.683,286.532 289.38,284.047 293.911,281.416 "/>
<polygon fill="#61A9CE" points="311.409,285.367 306.87,287.996 302.566,285.512 307.104,282.881 "/>
<polygon fill="#61A9CE" points="332.618,286.312 337.152,283.675 341.461,286.164 336.924,288.8 "/>
<polygon fill="#61A9CE" points="290.291,288.505 285.748,291.139 281.449,288.652 285.986,286.018 "/>
<polygon fill="#61A9CE" points="321.838,288.435 317.31,291.063 313.001,288.576 317.532,285.944 "/>
<polygon fill="#61A9CE" points="303.828,289.767 299.294,292.395 294.991,289.912 299.523,287.281 "/>
<polygon fill="#61A9CE" points="325.118,290.661 329.66,288.03 333.964,290.516 329.429,293.145 "/>
<polygon fill="#61A9CE" points="314.346,292.781 309.813,295.41 305.51,292.921 310.044,290.292 "/>
<polygon fill="#61A9CE" points="282.356,293.109 277.823,295.735 273.519,293.251 278.056,290.618 "/>
<polygon fill="#61A9CE" points="296.246,294.165 291.717,296.802 287.404,294.311 291.948,291.676 "/>
<polygon fill="#61A9CE" points="306.854,297.129 302.316,299.766 298.012,297.28 302.549,294.645 "/>
<polygon fill="#61A9CE" points="274.426,297.713 269.893,300.341 265.587,297.854 270.121,295.229 "/>
<polygon fill="#61A9CE" points="288.663,298.565 284.129,301.197 279.827,298.711 284.358,296.082 "/>
<polygon fill="#61A9CE" points="309.97,299.456 314.507,296.821 318.812,299.311 314.271,301.948 "/>
<polygon fill="#61A9CE" points="299.361,301.477 294.829,304.111 290.519,301.626 295.057,298.986 "/>
<polygon fill="#61A9CE" points="266.5,302.313 261.958,304.947 257.661,302.458 262.195,299.829 "/>
<polygon fill="#61A9CE" points="272.243,303.113 276.783,300.477 281.085,302.968 276.549,305.601 "/>
<polygon fill="#61A9CE" points="302.553,303.757 307.092,301.13 311.396,303.612 306.862,306.242 "/>
<polygon fill="#61A9CE" points="291.869,305.831 287.326,308.462 283.022,305.97 287.564,303.338 "/>
<polygon fill="#61A9CE" points="295.064,308.107 299.598,305.477 303.902,307.96 299.369,310.594 "/>
<polygon fill="#61A9CE" points="246.712,308.812 251.251,306.175 255.55,308.661 251.015,311.296 "/>
<polygon fill="#61A9CE" points="275.532,310.322 280.071,307.691 284.374,310.177 279.837,312.808 "/>
<polygon fill="#61A9CE" points="304.543,311.77 331.682,296.022 335.986,298.507 308.849,314.256 "/>
<polygon fill="#61A9CE" points="296.488,312.266 291.955,314.903 287.65,312.412 292.188,309.782 "/>
<polygon fill="#61A9CE" points="273.168,307.563 258.887,315.85 254.584,313.365 268.864,305.072 "/>
<polygon fill="#61A9CE" points="336.622,302.521 343.979,306.795 322.145,319.401 314.785,315.122 "/>
<polygon fill="#61A9CE" points="276.854,314.546 266.765,320.397 262.462,317.911 272.544,312.063 "/>
<polygon fill="#61A9CE" points="293.192,318.361 301.473,313.558 305.775,316.042 297.493,320.849 "/>
<polygon fill="#61A9CE" points="288.912,316.658 274.634,324.951 270.332,322.466 284.608,314.172 "/>
<polygon fill="#61A9CE" points="294.532,322.56 282.548,329.521 278.239,327.037 290.232,320.076 "/>
<path fill="#CFDFEB" d="M323.604,191.746c-0.048-0.026-0.106-0.063-0.148-0.086c-0.397-0.232-0.79-0.459-1.185-0.69
	c-0.396-0.229-0.788-0.459-1.185-0.688c-0.761-0.44-1.806-0.379-2.957,0.284l-84.056,48.534c-2.29,1.319-4.152,4.542-4.145,7.168
	l0.16,55.923c0,1.305,0.468,2.224,1.217,2.659c0.986,0.574,1.971,1.147,2.961,1.723c-0.752-0.434-1.214-1.353-1.219-2.664
	l-0.159-55.921c-0.007-2.625,1.855-5.845,4.144-7.168l84.06-48.531c1.147-0.666,2.197-0.726,2.954-0.285
	C323.898,191.915,323.75,191.829,323.604,191.746"/>
<path fill="#89BDDA" d="M321.093,192.286c2.281-1.317,4.163-0.255,4.169,2.369l0.156,55.927c0.01,2.623-1.857,5.854-4.143,7.173
	l-84.059,48.537c-2.291,1.317-4.162,0.244-4.169-2.383l-0.156-55.918c-0.01-2.627,1.853-5.848,4.142-7.172L321.093,192.286z
	 M321.934,198.943c-0.01-1.573-1.135-2.216-2.502-1.426l-80.714,46.6c-1.374,0.79-2.489,2.733-2.486,4.307l0.146,51.209
	c0.003,1.57,1.131,2.203,2.503,1.414l80.71-46.6c1.368-0.789,2.492-2.724,2.485-4.296L321.934,198.943z"/>
<g enable-background="new    ">
	<g>
		<defs>
			<rect id="SVGID_13_" x="44.441" y="279.585" width="56.947" height="50.977"/>
		</defs>
		<clipPath id="SVGID_14_">
			<use xlink:href="#SVGID_13_"  overflow="visible"/>
		</clipPath>
		<path clip-path="url(#SVGID_14_)" fill="#89BDDA" d="M93.447,283.216c-1.205-0.698-2.695-0.903-4.36-0.553
			c-1.029,0.216-2.122,0.644-3.256,1.298c-1.087,0.628-2.135,1.42-3.121,2.336l4.817,2.799c0.987-0.916,2.035-1.708,3.119-2.334
			c1.136-0.657,2.232-1.084,3.259-1.301c1.666-0.351,3.156-0.146,4.359,0.555L93.447,283.216z"/>
		<path clip-path="url(#SVGID_14_)" fill="#89BDDA" d="M79.245,280.419c-1.394-0.808-3.114-1.047-5.042-0.64
			c-1.188,0.252-2.452,0.746-3.766,1.503c-2.179,1.26-4.229,3.09-6.005,5.256c-3.274,3.991-5.627,9.119-6.197,13.891
			c-0.989,0.225-2.039,0.642-3.123,1.268c-1.882,1.089-3.651,2.668-5.185,4.538c-3.283,3.995-5.5,9.313-5.486,13.944
			c0.01,3.371,1.2,5.744,3.123,6.861l4.816,2.8c-1.918-1.115-3.11-3.488-3.121-6.861c-0.014-4.631,2.201-9.949,5.487-13.946
			c1.536-1.868,3.302-3.448,5.184-4.533c1.087-0.626,2.133-1.044,3.123-1.268c0.571-4.772,2.924-9.899,6.197-13.89
			c1.777-2.168,3.825-3.999,6.008-5.257c1.313-0.76,2.577-1.254,3.77-1.506c1.922-0.405,3.644-0.167,5.035,0.644L79.245,280.419z"/>
		<path clip-path="url(#SVGID_14_)" fill="#FFFFFF" d="M75.257,284.082c6.203-3.582,11.351-1.303,12.27,5.016
			c0.987-0.916,2.035-1.708,3.121-2.334c5.909-3.412,10.721-0.676,10.741,6.119c0.018,6.791-4.761,15.064-10.67,18.479L60,329.094
			c-5.911,3.411-10.721,0.677-10.74-6.116c-0.019-6.795,4.761-15.064,10.67-18.479c1.087-0.626,2.133-1.044,3.123-1.268
			C63.933,295.868,69.053,287.664,75.257,284.082"/>
	</g>
</g>
<g enable-background="new    ">
	<g>
		<defs>
			<rect id="SVGID_15_" x="372.792" y="67.841" width="73.248" height="65.568"/>
		</defs>
		<clipPath id="SVGID_16_">
			<use xlink:href="#SVGID_15_"  overflow="visible"/>
		</clipPath>
		<path clip-path="url(#SVGID_16_)" fill="#89BDDA" d="M435.824,72.514c-1.548-0.9-3.464-1.165-5.608-0.714
			c-1.32,0.28-2.729,0.831-4.187,1.673c-1.398,0.808-2.744,1.826-4.015,3.002l6.197,3.604c1.269-1.18,2.617-2.198,4.013-3.004
			c1.46-0.845,2.868-1.395,4.188-1.674c2.145-0.451,4.063-0.186,5.609,0.714L435.824,72.514z"/>
		<path clip-path="url(#SVGID_16_)" fill="#89BDDA" d="M417.558,68.914c-1.79-1.039-4.005-1.345-6.482-0.823
			c-1.529,0.32-3.155,0.958-4.846,1.934c-2.807,1.62-5.436,3.976-7.723,6.763c-4.212,5.133-7.238,11.728-7.972,17.864
			c-1.273,0.29-2.622,0.825-4.018,1.631c-2.421,1.397-4.693,3.431-6.667,5.833c-4.223,5.142-7.071,11.983-7.059,17.939
			c0.016,4.336,1.546,7.388,4.017,8.823l6.198,3.603c-2.469-1.436-4.002-4.488-4.017-8.823c-0.017-5.96,2.834-12.798,7.059-17.938
			c1.974-2.404,4.246-4.438,6.666-5.833c1.397-0.805,2.745-1.342,4.017-1.632c0.735-6.138,3.759-12.732,7.973-17.867
			c2.285-2.783,4.917-5.14,7.727-6.761c1.685-0.973,3.313-1.61,4.843-1.933c2.477-0.522,4.691-0.215,6.482,0.823L417.558,68.914z"/>
		<path clip-path="url(#SVGID_16_)" fill="#EDF1F3" d="M412.429,73.625c7.978-4.606,14.602-1.677,15.783,6.453
			c1.269-1.178,2.617-2.196,4.013-3.003c7.599-4.388,13.789-0.869,13.815,7.873c0.024,8.731-6.125,19.374-13.725,23.762
			l-39.509,22.811c-7.603,4.388-13.79,0.872-13.816-7.862c-0.024-8.742,6.125-19.383,13.725-23.773
			c1.4-0.804,2.743-1.342,4.017-1.631C397.864,88.787,404.448,78.233,412.429,73.625"/>
	</g>
</g>
<g enable-background="new    ">
	<g>
		<defs>
			<rect id="SVGID_17_" x="117.335" y="214.282" width="75.968" height="68.007"/>
		</defs>
		<clipPath id="SVGID_18_">
			<use xlink:href="#SVGID_17_"  overflow="visible"/>
		</clipPath>
		<path clip-path="url(#SVGID_18_)" fill="#89BDDA" d="M182.71,219.129c-1.605-0.932-3.593-1.208-5.815-0.741
			c-1.375,0.289-2.832,0.861-4.346,1.734c-1.45,0.839-2.847,1.895-4.163,3.115l6.427,3.736c1.316-1.22,2.715-2.28,4.164-3.113
			c1.512-0.875,2.974-1.447,4.344-1.734c2.222-0.469,4.21-0.196,5.816,0.74L182.71,219.129z"/>
		<path clip-path="url(#SVGID_18_)" fill="#89BDDA" d="M163.764,215.396c-1.857-1.078-4.156-1.396-6.724-0.855
			c-1.585,0.335-3.273,0.995-5.026,2.007c-2.91,1.679-5.641,4.121-8.01,7.013c-4.369,5.323-7.507,12.166-8.269,18.531
			c-1.321,0.298-2.718,0.855-4.166,1.692c-2.511,1.446-4.868,3.557-6.915,6.047c-4.377,5.334-7.337,12.429-7.319,18.608
			c0.012,4.498,1.601,7.661,4.163,9.15l6.428,3.735c-2.559-1.488-4.151-4.652-4.163-9.149c-0.019-6.182,2.937-13.274,7.318-18.607
			c2.046-2.494,4.404-4.601,6.916-6.048c1.447-0.837,2.846-1.394,4.164-1.695c0.762-6.366,3.9-13.203,8.269-18.531
			c2.37-2.887,5.104-5.33,8.012-7.01c1.753-1.012,3.441-1.673,5.027-2.007c2.567-0.542,4.867-0.223,6.722,0.855L163.764,215.396z"/>
		<path clip-path="url(#SVGID_18_)" fill="#FFFFFF" d="M158.442,220.283c8.277-4.779,15.144-1.738,16.372,6.691
			c1.316-1.219,2.717-2.278,4.164-3.114c7.879-4.552,14.299-0.902,14.327,8.166c0.025,9.058-6.353,20.094-14.234,24.645
			l-40.981,23.66c-7.882,4.551-14.3,0.902-14.325-8.155c-0.026-9.067,6.352-20.105,14.234-24.657
			c1.447-0.835,2.846-1.392,4.164-1.691C143.339,236.009,150.165,225.062,158.442,220.283"/>
	</g>
</g>
<path fill="#61A9CE" d="M127.981,300.691v-0.003v-0.001c0-0.192,0.116-0.381,0.353-0.529c0.473-0.295,1.243-0.295,1.718,0
	c0.476,0.293,0.478,0.771,0.005,1.064c0.235-0.143,0.353-0.337,0.353-0.528l0.791,29.314c0,0.193-0.094,0.377-0.235,0.553
	c-0.017,0.021-0.011,0.044-0.028,0.064v-0.038c-0.093,0.107-0.182,0.216-0.327,0.304c-0.6,0.372-1.438,0.37-2.176,0.181
	l-0.002,0.102c-0.249-0.063-0.482-0.155-0.687-0.282c-0.4-0.246-0.598-0.569-0.598-0.893L127.981,300.691z"/>
<path fill="#61A9CE" d="M117.893,307.288L117.893,307.288v-0.004c0,0.003,0.002,0.003,0.002,0.003c0-0.192,0.115-0.387,0.352-0.531
	c0.474-0.294,1.242-0.294,1.718-0.001c0.477,0.295,0.479,0.771,0.006,1.066c0.235-0.147,0.351-0.339,0.354-0.529l0.787,29.316
	c0,0.191-0.092,0.373-0.234,0.55c-0.016,0.021-0.008,0.046-0.028,0.066v-0.039c-0.091,0.107-0.183,0.215-0.328,0.306
	c-0.597,0.372-1.436,0.369-2.175,0.175v0.105c-0.25-0.063-0.485-0.158-0.687-0.28c-0.401-0.247-0.6-0.57-0.597-0.896
	L117.893,307.288z"/>
<path fill="#61A9CE" d="M137.276,295.024c0,0.012,0.02,0.02,0.022,0.032c0.01-0.183,0.108-0.364,0.336-0.505
	c0.472-0.295,1.239-0.295,1.718,0c0.224,0.138,0.326,0.322,0.338,0.503c0-0.008,0.016-0.015,0.016-0.024l0.001,0.048v0.009
	l0.789,29.261c0,0.19-0.093,0.375-0.235,0.55c-0.015,0.02-0.01,0.046-0.027,0.066v-0.04c-0.093,0.107-0.184,0.217-0.33,0.306
	c-0.596,0.372-1.435,0.369-2.175,0.176l-0.001,0.104c-0.25-0.063-0.483-0.153-0.688-0.279c-0.397-0.247-0.598-0.572-0.598-0.895
	L137.276,295.024z"/>
<g enable-background="new    ">
	<g>
		<defs>
			<rect id="SVGID_19_" x="112.6" y="318.808" width="53.327" height="39.224"/>
		</defs>
		<clipPath id="SVGID_20_">
			<use xlink:href="#SVGID_19_"  overflow="visible"/>
		</clipPath>
		<polygon clip-path="url(#SVGID_20_)" fill="#89BDDA" points="112.599,336.874 112.622,345.343 134.536,358.033 134.509,349.563 		
			"/>
		<polygon clip-path="url(#SVGID_20_)" fill="#89BDDA" points="134.509,349.563 134.536,358.032 165.929,339.97 165.903,331.5 		"/>
		<polygon clip-path="url(#SVGID_20_)" fill="#CFDFEB" points="136.175,350.704 136.194,355.757 164.262,339.609 164.24,334.557 		
			"/>
		<polygon clip-path="url(#SVGID_20_)" fill="#CFDFEB" points="112.599,336.874 134.509,349.563 165.904,331.5 143.992,318.808 		
			"/>
	</g>
</g>
<path fill="#FFFFFF" d="M162.396,331.185c-0.473-0.272-1.247-0.272-1.723,0c-0.474,0.275-0.474,0.719,0,0.991
	c0.476,0.275,1.25,0.275,1.723,0C162.873,331.903,162.873,331.46,162.396,331.185"/>
<path fill="#FFFFFF" d="M159.51,332.833c-0.474-0.273-1.246-0.273-1.722,0c-0.475,0.274-0.475,0.719,0,0.992
	c0.476,0.273,1.248,0.273,1.722,0C159.987,333.552,159.987,333.107,159.51,332.833"/>
<path fill="#FFFFFF" d="M156.18,334.72c-0.474-0.272-1.246-0.272-1.722,0c-0.475,0.274-0.475,0.719,0,0.991
	c0.476,0.275,1.248,0.275,1.722,0C156.657,335.438,156.657,334.994,156.18,334.72"/>
<path fill="#2B79B5" d="M337.842,236.999c-0.104-0.013-0.23,0.01-0.365,0.089c-0.39,0.218-0.712,0.761-0.717,1.209
	c-0.001,0.163,0.039,0.292,0.106,0.38c-0.544-0.688-1.086-1.377-1.63-2.068C336.104,236.739,336.974,236.871,337.842,236.999"/>
<path fill="#FFFFFF" d="M337.477,237.088c0.135-0.079,0.261-0.102,0.365-0.089c1.304,0.2,2.605,0.394,3.905,0.588
	c0.041,0.006,0.059,0.052,0.098,0.062c-0.061-0.016-0.123-0.034-0.193-0.039c-0.047-0.004-0.084-0.034-0.135-0.028
	c-0.209,0.015-0.437,0.083-0.683,0.222c-0.241,0.134-0.477,0.32-0.689,0.541c-0.426,0.442-0.769,1.026-0.954,1.616
	c-0.091,0.294-0.144,0.59-0.148,0.873c-0.002,0.286,0.047,0.528,0.134,0.725c0.024,0.053,0.07,0.072,0.101,0.117
	c0.041,0.064,0.088,0.115,0.138,0.164c-0.028-0.026-0.079-0.022-0.104-0.056c-0.814-1.032-1.627-2.069-2.444-3.105
	c-0.067-0.087-0.107-0.217-0.106-0.38C336.766,237.849,337.087,237.306,337.477,237.088"/>
<path fill="#CFDFEB" d="M339.276,241.675c-0.03-0.046-0.076-0.065-0.101-0.118c-0.087-0.196-0.136-0.439-0.134-0.724
	c0.005-0.283,0.058-0.58,0.148-0.876c0.186-0.589,0.528-1.17,0.954-1.612c0.213-0.221,0.448-0.408,0.689-0.542
	c0.246-0.137,0.474-0.207,0.683-0.222c0.051-0.004,0.088,0.025,0.135,0.03c0.07,0.003,0.133,0.021,0.193,0.039
	c0.07,0.019,0.154,0.01,0.215,0.046l25.543,14.843c-0.115-0.067-0.26-0.076-0.404-0.086c-0.047-0.002-0.086-0.035-0.139-0.028
	c-0.21,0.014-0.438,0.084-0.683,0.221c-0.975,0.543-1.776,1.901-1.792,3.031c-0.003,0.285,0.044,0.527,0.133,0.724
	c0,0.003,0,0.004,0.003,0.007c0.033,0.079,0.103,0.114,0.152,0.176c0.069,0.09,0.128,0.198,0.221,0.256
	c0.004,0,0.004,0.003,0.008,0.006c-7.661-4.452-17.88-10.389-25.541-14.843c-0.005-0.001-0.005-0.004-0.01-0.007
	c-0.057-0.036-0.089-0.108-0.137-0.156C339.364,241.789,339.317,241.738,339.276,241.675"/>
<path fill="#FFFFFF" d="M367.198,252.453c-0.046-0.001-0.086-0.033-0.139-0.028C367.112,252.419,367.152,252.452,367.198,252.453"/>
<path fill="#FFFFFF" d="M364.873,256.582c0.069,0.09,0.128,0.198,0.221,0.256C365.001,256.78,364.942,256.672,364.873,256.582"/>
<path fill="#FFFFFF" d="M364.585,255.676c-0.003,0.285,0.046,0.527,0.133,0.724C364.629,256.203,364.582,255.96,364.585,255.676"/>
<path fill="#FFFFFF" d="M369.231,259.11c-0.125-0.013-0.259-0.016-0.361-0.077c-0.003-0.002-0.003-0.006-0.007-0.008
	C368.968,259.091,369.104,259.097,369.231,259.11"/>
<path fill="#FFFFFF" d="M371.374,254.729c0.003,0.002,0.004,0.006,0.007,0.008c-0.104-0.064-0.243-0.071-0.373-0.085
	C371.137,254.666,371.27,254.67,371.374,254.729"/>
<path fill="#FFFFFF" d="M370.828,254.615c-0.209,0.015-0.439,0.084-0.682,0.219C370.389,254.699,370.616,254.63,370.828,254.615"/>
<path fill="#FFFFFF" d="M371.757,255.176c-0.041-0.09-0.114-0.133-0.17-0.203C371.643,255.043,371.718,255.086,371.757,255.176"/>
<path fill="#FFFFFF" d="M368.632,258.76c-0.043-0.06-0.11-0.094-0.144-0.172C368.521,258.666,368.589,258.7,368.632,258.76"/>
<path fill="#FFFFFF" d="M369.416,259.15c0.208-0.013,0.438-0.086,0.682-0.221C369.854,259.063,369.627,259.137,369.416,259.15"/>
<path fill="#2B79B5" d="M365.094,256.835c0.004,0.003,0.004,0.006,0.008,0.009l3.769,2.188c-0.003-0.003-0.003-0.006-0.007-0.006
	c0.104,0.061,0.24,0.069,0.368,0.083c0.064,0.008,0.117,0.044,0.185,0.04c0.208-0.014,0.438-0.084,0.682-0.218
	c0.977-0.547,1.778-1.901,1.79-3.034c0.005-0.284-0.042-0.524-0.131-0.721c-0.041-0.09-0.114-0.133-0.17-0.203
	c-0.067-0.083-0.119-0.184-0.206-0.236c-0.104-0.065-0.243-0.071-0.373-0.085c0.129,0.014,0.262,0.016,0.369,0.076l-3.774-2.188
	c-0.115-0.068-0.26-0.076-0.404-0.087c-0.047-0.002-0.086-0.033-0.139-0.028c-0.21,0.014-0.438,0.084-0.686,0.221
	c-0.972,0.545-1.773,1.899-1.789,3.031c-0.003,0.284,0.046,0.528,0.133,0.721c0,0.002,0,0.006,0.003,0.009
	c0.033,0.079,0.103,0.114,0.152,0.176C364.942,256.672,365.001,256.78,365.094,256.835 M370.828,254.615
	c-0.209,0.013-0.439,0.084-0.682,0.219C370.389,254.699,370.616,254.628,370.828,254.615 M368.488,258.588
	c0.033,0.078,0.099,0.112,0.144,0.172C368.587,258.7,368.521,258.666,368.488,258.588"/>
<g enable-background="new    ">
	<g>
		<defs>
			<rect id="SVGID_21_" x="415.501" y="362.318" width="6.301" height="30.783"/>
		</defs>
		<clipPath id="SVGID_22_">
			<use xlink:href="#SVGID_21_"  overflow="visible"/>
		</clipPath>
		<path clip-path="url(#SVGID_22_)" fill="#242629" d="M417.93,364.553c-1.216,0.701-2.064,2.024-2.365,3.878
			c-0.007,0.041-0.014,0.077-0.019,0.115l-0.045,24.556l3.875-2.234l0.047-24.555c0.004-0.035,0.015-0.076,0.017-0.113
			c0.302-1.853,1.149-3.182,2.362-3.881L417.93,364.553z"/>
	</g>
</g>
<path fill="#1B3C96" d="M346.994,570.984l0.7-0.402l-2.009-1.152l0.013-4.637c0.009-3.201,1.726-6.154,4.502-7.746l26.844-15.411
	l-19.671-11.387c-0.441,0.472-0.923,0.876-1.435,1.17c-1.32,0.755-2.431,0.537-3.063-0.312c0.152,0.204,0.285,0.436,0.493,0.558
	l-4.429-2.553c-0.648-0.374-1.053-1.169-1.055-2.296c-0.001-0.517,0.104-1.059,0.255-1.604c0.023-0.092,0.042-0.176,0.07-0.269
	l-0.325-0.188l0.014-4.429c0.009-3.33,1.79-6.405,4.678-8.068l3.102-1.788c1.483-0.854,3.307-0.853,4.788,0.006l25.338,14.665
	l0.14-95.926h9.812h11.462l-0.14,95.049l25.918-15.133c1.479-0.862,3.306-0.87,4.793-0.02l4.271,2.445
	c2.198,1.258,3.55,3.598,3.544,6.132l-0.016,5.715l-0.255,0.146c0.021,0.06,0.038,0.117,0.061,0.176
	c0.055,0.158,0.115,0.309,0.162,0.467c0.148,0.543,0.256,1.087,0.254,1.607c-0.004,1.127-0.408,1.919-1.057,2.294l-4.431,2.554
	c0.208-0.121,0.343-0.353,0.493-0.555c-0.632,0.846-1.743,1.061-3.061,0.306c-0.605-0.347-1.15-0.871-1.651-1.459l-21.636,12.633
	l25.512,14.475c2.815,1.596,4.549,4.583,4.542,7.818l-0.016,4.572l-1.662,0.96l0.625,0.359c0,0,0.002,0,0.002,0.003l0.012,0.006
	c0-0.003-0.006,0-0.009-0.003c0.653,0.373,1.057,1.168,1.062,2.304c0.004,2.266-1.604,5.035-3.603,6.182
	c-1.322,0.758-2.438,0.534-3.07-0.318c0.156,0.208,0.291,0.443,0.504,0.564l-4.431-2.556c-0.648-0.37-1.05-1.162-1.053-2.291
	c0-0.056,0.017-0.115,0.019-0.171l-37.132-21.068l-38.237,21.947c0.019,0.168,0.063,0.346,0.063,0.51
	c-0.003,1.127-0.406,1.921-1.055,2.296l-4.43,2.553c0.214-0.123,0.353-0.359,0.506-0.571c-0.629,0.862-1.748,1.085-3.074,0.323
	c-2-1.144-3.607-3.915-3.6-6.185c0.001-1.136,0.408-1.928,1.059-2.301C346.999,570.984,346.997,570.984,346.994,570.984"/>
<path fill="#F98B23" d="M323.7,419.654c-0.002-0.999,0.126-1.994,0.327-2.988c1.171,5.625,5.488,11.08,13.024,15.394l28.467,16.296
	c8.672,4.967,19.959,7.51,31.293,7.628c11.874,0.122,23.804-2.418,32.836-7.621l28.278-16.297
	c6.037-3.479,9.998-7.698,11.888-12.147c0.424-1,0.742-2.018,0.959-3.038c0.216,1.114,0.354,2.232,0.325,3.35
	c0.002-0.126,0.038-0.249,0.038-0.374l-0.024,8.865c0.004,0.208,0,0.417-0.001,0.626l-0.007,1.79
	c-0.004,2.063-0.437,4.126-1.29,6.142c-1.89,4.451-5.851,8.666-11.888,12.149l-28.278,16.297c-9.032,5.202-20.962,7.74-32.836,7.616
	c-11.334-0.117-22.621-2.66-31.293-7.625l-28.467-16.295c-8.942-5.121-13.409-11.841-13.388-18.552l0.029-11.28
	C323.693,419.61,323.7,419.632,323.7,419.654"/>
<path fill="#F75D23" d="M457.926,432.065l-28.278,16.297c-9.032,5.203-20.962,7.743-32.836,7.623
	c-11.334-0.12-22.619-2.663-31.293-7.63l-28.467-16.296c-7.536-4.313-11.854-9.769-13.023-15.394
	c1.111-5.613,5.363-11.053,12.835-15.356l28.279-16.301c17.659-10.174,46.378-10.167,64.141,0l28.465,16.298
	c7.616,4.359,11.915,9.885,13.024,15.573c-0.217,1.021-0.535,2.038-0.959,3.038C467.924,424.367,463.963,428.586,457.926,432.065"/>
<path fill="#1B3C96" d="M469.847,435.275c-1.891,4.45-5.853,8.667-11.891,12.148l-28.279,16.297
	c-9.03,5.204-20.958,7.741-32.835,7.62c-11.335-0.118-22.618-2.66-31.292-7.626l-28.466-16.3
	c-8.942-5.116-13.407-11.839-13.391-18.55l-0.029,11.277c-0.021,6.714,4.445,13.436,13.388,18.554l28.467,16.299
	c8.672,4.964,19.959,7.507,31.293,7.624c11.874,0.121,23.804-2.417,32.833-7.619l28.28-16.298
	c6.038-3.479,9.999-7.698,11.889-12.147c0.852-2.015,1.284-4.077,1.29-6.144l0.032-11.279
	C471.129,431.197,470.7,433.26,469.847,435.275"/>
<path fill="#12256B" d="M341.411,376.373l38.193,17.848c32.071-8.491,75.609-17.014,79.897-2.129
	c6.865,23.828-0.606,35.541-12.406,42.739c-11.799,7.198-46.757,17.234-71.115,4.186l-71.021-41.485L341.411,376.373z"/>
<path fill="#FFFFFF" d="M388.098,260.78c-0.084-1.875,6.273-13.782,7.903-12.493c6.117,4.843,23.979,3.788,28.296,1.531
	c3.854-2.011,3.443-7.903,3.443-7.903s24.473,21.413-9.373,28.023c-6.814,1.332-14.435,0.838-20.616-2.146
	C392.456,265.232,383.196,265.648,388.098,260.78"/>
<path fill="#2B79B5" d="M387.421,432.882c-28.307-4.239-31.86-27.985-32.278-35.518l-0.054-2.353c0,0,2.445-4.777,5.675-14.974
	c3.234-10.197-9.96-76.115,11.777-109.6c6.616-7.564,13.336-11.146,17.327-12.876c0,0,9.265,10.538,29.841,6.023
	c20.97-4.605,13.16-17.052,13.16-17.052c27.373,0.363,27.352,35.769,28.171,48.432c1.464,22.725,2.882,69.94,2.571,108.753
	c-1.884,3.354-4.01,6.585-6.484,9.521C439.807,433.778,421.135,437.93,387.421,432.882"/>
<g enable-background="new    ">
	<g>
		<defs>
			<rect id="SVGID_23_" x="438.339" y="346.287" width="17.841" height="124.538"/>
		</defs>
		<clipPath id="SVGID_24_">
			<use xlink:href="#SVGID_23_"  overflow="visible"/>
		</clipPath>
		<polygon clip-path="url(#SVGID_24_)" fill="#303437" points="443.236,356.358 438.339,353.511 450.959,346.287 455.854,349.135 		
			"/>
		<path clip-path="url(#SVGID_24_)" fill="#1B3C96" d="M443.236,356.358l12.617-7.224l0.326,113.363
			c0.002,1.418-0.754,2.727-1.984,3.433l-6.775,3.878c-2.384,1.366-5.317,1.356-7.69-0.025l-1.059-0.616l-0.332-115.656
			L443.236,356.358z"/>
	</g>
</g>
<path fill="#F75D23" d="M396.983,390.478l4.907-61.549c0.456-5.74,2.246-11.953,5.034-18.155c3.109-6.917,7.464-13.82,12.607-20.043
	c6.133-7.425,13.387-13.876,20.982-18.229c4.563-2.611,9.01-4.326,13.168-5.193c6.17-1.291,11.707-0.718,16.054,1.546
	c0.222,0.116,0.439,0.236,0.654,0.357l8.556,4.929c-0.218-0.123-0.436-0.243-0.655-0.357c-0.068-0.035-0.152-0.051-0.222-0.087
	c0.491,0.246,0.944,0.539,1.404,0.826c-2.706-0.269-5.639-0.091-8.733,0.556c-4.155,0.868-8.604,2.581-13.168,5.196
	c-7.596,4.349-14.85,10.801-20.983,18.228c-5.143,6.221-9.496,13.124-12.606,20.044c-2.788,6.201-4.577,12.415-5.032,18.152
	l-4.909,61.551c-0.668,8.436,1.717,14.485,6.191,17.795c-2.951-0.161-5.573-0.928-7.742-2.311c0.169,0.109,0.32,0.245,0.499,0.347
	l-8.552-4.932C399.133,406.094,396.254,399.689,396.983,390.478"/>
<path fill="#F98B23" d="M414.041,398.248l4.909-61.551c0.455-5.738,2.244-11.951,5.032-18.152
	c3.112-6.92,7.464-13.823,12.606-20.044c6.134-7.426,13.388-13.879,20.983-18.228c4.563-2.615,9.01-4.328,13.168-5.196
	c3.095-0.647,6.027-0.825,8.733-0.559c4.674,2.936,7.776,7.988,8.438,14.989l5.222,55.75c1.691,17.892-13.259,41.902-33.219,53.332
	l-20.96,11.997c-7.03,4.025-13.431,5.744-18.722,5.456C415.758,412.733,413.373,406.684,414.041,398.248"/>
<path fill="#F9C2A9" d="M378.329,176.642c0,0-1.313,13.579,0.254,23.777c0,0-3.082,4.711-4.343,7.935
	c-1.262,3.221,4.343,6.252,4.343,6.252s-0.787,6.946,1.222,15.134c2.008,8.185,9.174,9.803,15.99,10.862c0,0,0.508,4.007,0,7.633
	c0,0,3.669,3.793,14.572,3.995c10.904,0.203,18.039-2.153,18.039-8.818v-16.152v-50.952L378.329,176.642z"/>
<path fill="#1B3C96" d="M408.935,232.57c6.885-6.323,6.25-20.362-0.398-20.362c-6.65,0-5.438,11.011-5.438,11.011
	s-2.826,1.212-5.787-1.344c0,0,2.928-13.731,0-24.535c-2.93-10.802-8.482-14.235-8.482-14.235s-7.8,4.528-13.524,3.375
	c0,0-1.72-13.472-4.447-21.648c0,0,19.486-16.962,55.935-7.875c36.446,9.085,23.96,48.766,16.423,61.147
	c-7.539,12.385-15.893,18.783-15.893,18.783s-6.294,6.453-21.888,4.604c0,0,1.378-1.856,2.31-4.498
	C408.674,234.351,408.935,232.57,408.935,232.57"/>
<path fill="#F9C2A9" d="M353.637,292.506c0,0-4.373,0.148-9.576,2.642c-5.202,2.492-8.586,5.133-9.574,5.221
	c-0.987,0.086-1.74-1.405-0.486-3.317c1.252-1.916,3.856-3.865,3.856-3.865s-7.981-2.339-11.775-4.925
	c-3.793-2.584,2.622-7.47,4.268-9.079c2.278-2.227,7.914-1.55,13.44-0.793c5.525,0.758,7.191,1.885,12.807,2.109
	C362.209,280.724,353.637,292.506,353.637,292.506"/>
<path fill="#1B3C96" d="M356.207,278.829c0,0-7.47,6.207-5.452,15.898c0,0,12.789,7.054,36.077,7.592l6.597-21.671
	C393.429,280.647,373.841,275.397,356.207,278.829"/>
<path fill="#F9C2A9" d="M310.097,330.789c0,0-2.777-3.383-4.342-8.936c-1.563-5.553-1.818-9.837-2.403-10.636
	c-0.586-0.8-2.204-0.38-2.813,1.824c-0.607,2.204-0.355,5.448-0.355,5.448s-5.412-3.437-9.858-4.577
	c-4.449-1.141-9.37,4.869-9.491,7.167c-0.169,3.18,5.478,7.773,9.695,11.421c4.221,3.65,8.628,4.373,12.505,8.438
	C306.909,345.008,310.097,330.789,310.097,330.789"/>
<path fill="#1750A1" d="M369.94,273.379c-21.396,18.464-27.824,63.274-27.824,63.274s-16.829-6.862-31.268-9.791
	c0,0-9.489,0.606-11.608,15.752c0,0,23.157,16.063,39.915,24.239c16.762,8.178,25.473,7.094,29.712-0.537
	c4.238-7.633,23.353-40.453,27.313-74.981c0,0,1.521-12.855-8.22-17.981c-3.481-1.831-6.624-2.591-9.083-2.864
	C375.635,270.131,372.409,271.247,369.94,273.379"/>
<path fill="#2B79B5" d="M110.328,201.05l99.081-56.433c0.311-0.179,0.562-0.574,0.562-0.884v-69.38c0-0.308-0.251-0.418-0.562-0.24
	l-99.081,56.433c-0.311,0.176-0.56,0.571-0.56,0.881v69.381C109.768,201.119,110.017,201.226,110.328,201.05"/>
<path fill="#12256B" d="M114.119,196.407l91.496-52.112c0.273-0.157,0.496-0.505,0.496-0.778V85.014
	c0-0.272-0.222-0.367-0.496-0.213l-91.496,52.115c-0.272,0.154-0.496,0.502-0.496,0.777v58.5
	C113.624,196.466,113.847,196.564,114.119,196.407"/>
<polygon fill="#2B79B5" points="131.841,138.73 199.546,100.167 199.546,97.696 131.841,136.256 "/>
<polygon fill="#2B79B5" points="158.125,131.699 199.542,108.107 199.542,105.632 158.125,129.225 "/>
<polygon fill="#2B79B5" points="195.484,115.987 199.543,113.675 199.543,111.201 195.484,113.514 "/>
<polygon fill="#42B8D4" points="188.776,119.809 192.836,117.496 192.836,115.022 188.776,117.335 "/>
<polygon fill="#F75D23" points="175.509,138.501 192.836,128.631 192.836,126.157 175.509,136.028 "/>
<polygon fill="#F75D23" points="175.509,144.069 192.836,134.199 192.836,131.725 175.509,141.595 "/>
<polygon fill="#F75D23" points="127.943,171.16 134.686,167.32 134.686,164.844 127.943,168.687 "/>
<polygon fill="#F75D23" points="175.509,149.635 192.836,139.767 192.836,137.293 175.509,147.162 "/>
<polygon fill="#F75D23" points="127.943,176.728 145.27,166.858 145.27,164.384 127.943,174.254 "/>
<polygon fill="#F75D23" points="175.509,155.203 192.836,145.334 192.836,142.86 175.509,152.729 "/>
<polygon fill="#F75D23" points="127.943,182.295 164.626,161.4 164.626,158.927 127.943,179.822 "/>
<polygon fill="#42B8D4" points="181.929,123.708 185.991,121.395 185.991,118.92 181.929,121.234 "/>
<polygon fill="#42B8D4" points="175.049,127.626 179.11,125.313 179.11,122.84 175.049,125.153 "/>
<path fill="#42B8D4" d="M127.743,126.208l3.083-1.757c0.27-0.152,0.487-0.497,0.487-0.766v-1.497c0-0.272-0.218-0.364-0.487-0.211
	l-3.083,1.757c-0.269,0.152-0.486,0.496-0.486,0.765v1.498C127.256,126.267,127.474,126.361,127.743,126.208"/>
<path fill="#42B8D4" d="M120.896,130.106l3.083-1.757c0.271-0.153,0.49-0.496,0.49-0.765v-1.498c0-0.272-0.22-0.365-0.49-0.211
	l-3.083,1.756c-0.268,0.153-0.487,0.496-0.487,0.765v1.498C120.409,130.166,120.628,130.262,120.896,130.106"/>
<path fill="#42B8D4" d="M114.016,134.025l3.085-1.756c0.269-0.152,0.489-0.496,0.489-0.766v-1.497c0-0.271-0.221-0.364-0.489-0.211
	l-3.085,1.757c-0.268,0.152-0.487,0.496-0.487,0.764v1.499C113.529,134.085,113.748,134.178,114.016,134.025"/>
<polygon fill="#42B8D4" points="167.792,131.76 171.852,129.447 171.852,126.974 167.792,129.287 "/>
<polygon fill="#42B8D4" points="143.31,145.706 164.937,133.387 164.937,130.914 143.31,143.232 "/>
<polygon fill="#2B79B5" points="195.484,121.555 199.543,119.242 199.543,116.769 195.484,119.082 "/>
<polygon fill="#F98B23" points="129.297,159.254 192.836,123.064 192.836,120.59 129.297,156.781 "/>
<polygon fill="#2B79B5" points="195.484,127.123 199.543,124.81 199.543,122.335 195.484,124.649 "/>
<polygon fill="#2B79B5" points="195.484,132.69 199.543,130.378 199.543,127.904 195.484,130.217 "/>
<polygon fill="#2B79B5" points="143.31,140.137 151.828,135.284 151.828,132.81 143.31,137.664 "/>
<polygon fill="#2B79B5" points="123.217,143.641 128.805,140.459 128.805,137.986 123.217,141.167 "/>
<polygon fill="#F98B23" points="120.191,164.44 125.775,161.258 125.775,158.785 120.191,161.966 "/>
<polygon fill="#2B79B5" points="254.45,248.213 315.758,213.218 315.758,211.335 254.45,246.326 "/>
<polygon fill="#2B79B5" points="278.251,240.677 315.758,219.269 315.758,217.383 278.251,238.792 "/>
<polygon fill="#2B79B5" points="312.081,225.609 315.758,223.511 315.758,221.625 312.081,223.722 "/>
<polygon fill="#42B8D4" points="306.008,229.077 309.684,226.979 309.684,225.091 306.008,227.19 "/>
<polygon fill="#F75D23" points="293.994,244.419 309.684,235.463 309.684,233.578 293.994,242.533 "/>
<polygon fill="#F75D23" points="293.994,248.661 309.684,239.705 309.684,237.82 293.994,246.775 "/>
<polygon fill="#F75D23" points="250.919,273.247 257.023,269.761 257.023,267.877 250.919,271.363 "/>
<polygon fill="#F75D23" points="293.994,252.904 309.684,243.948 309.684,242.063 293.994,251.019 "/>
<polygon fill="#F75D23" points="250.919,277.49 266.61,268.535 266.61,266.648 250.919,275.605 "/>
<polygon fill="#F75D23" points="293.994,257.148 309.684,248.189 309.684,246.306 293.994,255.26 "/>
<polygon fill="#F75D23" points="250.919,281.732 284.138,262.771 284.138,260.886 250.919,279.847 "/>
<polygon fill="#42B8D4" points="299.809,232.615 303.485,230.517 303.485,228.632 299.809,230.73 "/>
<polygon fill="#42B8D4" points="293.578,236.172 297.255,234.073 297.255,232.186 293.578,234.285 "/>
<polygon fill="#42B8D4" points="287.005,239.923 290.682,237.824 290.682,235.94 287.005,238.037 "/>
<polygon fill="#42B8D4" points="264.834,252.577 284.418,241.399 284.418,239.514 264.834,250.693 "/>
<polygon fill="#2B79B5" points="312.081,229.851 315.758,227.753 315.758,225.868 312.081,227.966 "/>
<polygon fill="#F98B23" points="252.143,264.063 309.684,231.222 309.684,229.335 252.143,262.179 "/>
<polygon fill="#2B79B5" points="312.081,234.095 315.758,231.994 315.758,230.11 312.081,232.207 "/>
<polygon fill="#2B79B5" points="312.081,238.337 315.758,236.236 315.758,234.354 312.081,236.449 "/>
<polygon fill="#2B79B5" points="264.834,248.334 272.549,243.931 272.549,242.045 264.834,246.448 "/>
<polygon fill="#2B79B5" points="246.64,252.671 251.696,249.783 251.696,247.898 246.64,250.784 "/>
<polygon fill="#F98B23" points="243.899,268.769 248.956,265.882 248.956,263.998 243.899,266.883 "/>
<polygon fill="#2B79B5" points="238.527,112.731 367.063,39.316 367.063,34.941 238.527,108.354 "/>
<polygon fill="#2B79B5" points="279.991,103.059 367.063,53.362 367.063,48.982 279.991,98.682 "/>
<polygon fill="#2B79B5" points="358.529,68.08 367.063,63.21 367.063,58.833 358.529,63.702 "/>
<polygon fill="#42B8D4" points="344.426,76.129 352.961,71.258 352.961,66.881 344.426,71.752 "/>
<polygon fill="#F75D23" points="316.537,111.745 352.961,90.956 352.961,86.577 316.537,107.368 "/>
<polygon fill="#F75D23" points="316.537,121.594 352.961,100.803 352.961,96.425 316.537,117.218 "/>
<polygon fill="#F75D23" points="230.331,170.846 244.504,162.755 244.504,158.378 230.331,166.468 "/>
<polygon fill="#F75D23" points="316.537,131.442 352.961,110.653 352.961,106.274 316.537,127.064 "/>
<polygon fill="#F75D23" points="230.331,180.694 266.756,159.905 266.756,155.525 230.331,176.316 "/>
<polygon fill="#F75D23" points="316.537,141.291 352.961,120.5 352.961,116.121 316.537,136.913 "/>
<polygon fill="#F75D23" points="230.331,190.543 293.658,154.348 293.658,149.972 230.331,186.165 "/>
<polygon fill="#42B8D4" points="330.035,84.344 338.569,79.474 338.569,75.096 330.035,79.967 "/>
<polygon fill="#42B8D4" points="315.571,92.599 324.105,87.729 324.105,83.353 315.571,88.222 "/>
<polygon fill="#42B8D4" points="300.313,101.309 308.846,96.439 308.846,92.062 300.313,96.931 "/>
<polygon fill="#42B8D4" points="262.634,122.863 294.312,104.733 294.312,100.359 262.634,118.486 "/>
<polygon fill="#2B79B5" points="358.529,77.928 367.063,73.057 367.063,68.68 358.529,73.551 "/>
<polygon fill="#F98B23" points="233.177,149.525 352.961,81.106 352.961,76.729 233.177,145.147 "/>
<polygon fill="#2B79B5" points="358.529,87.776 367.063,82.907 367.063,78.527 358.529,83.399 "/>
<polygon fill="#2B79B5" points="358.529,97.625 367.063,92.754 367.063,88.376 358.529,93.248 "/>
<polygon fill="#2B79B5" points="262.634,113.015 266.756,110.613 266.756,106.237 262.634,108.637 "/>
<polygon fill="#2B79B5" points="220.398,123.078 232.138,116.377 232.138,112.001 220.398,118.701 "/>
<polygon fill="#F98B23" points="214.036,160.451 225.776,153.75 225.776,149.373 214.036,156.073 "/>
<g enable-background="new    ">
	<g>
		<defs>
			<rect id="SVGID_25_" x="159.539" y="175.316" width="54.611" height="67.846"/>
		</defs>
		<clipPath id="SVGID_26_">
			<use xlink:href="#SVGID_25_"  overflow="visible"/>
		</clipPath>
		<g clip-path="url(#SVGID_26_)">
			<defs>
				<rect id="SVGID_27_" x="180.195" y="231.899" width="3.893" height="2.267"/>
			</defs>
			<clipPath id="SVGID_28_">
				<use xlink:href="#SVGID_27_"  overflow="visible"/>
			</clipPath>
			<g clip-path="url(#SVGID_28_)">
				<defs>
					<rect id="SVGID_29_" x="180.195" y="231.899" width="3.893" height="2.267"/>
				</defs>
				<clipPath id="SVGID_30_">
					<use xlink:href="#SVGID_29_"  overflow="visible"/>
				</clipPath>
				<g clip-path="url(#SVGID_30_)" enable-background="new    ">
					<g>
						<defs>
							<rect id="SVGID_31_" x="180.195" y="231.899" width="3.893" height="2.267"/>
						</defs>
						<clipPath id="SVGID_32_">
							<use xlink:href="#SVGID_31_"  overflow="visible"/>
						</clipPath>
						<path clip-path="url(#SVGID_32_)" fill="#F75D23" d="M184.029,234.128l-3.834-2.229c0.015,0.014,0.037,0.026,0.054,0.038
							l3.839,2.23C184.064,234.158,184.046,234.141,184.029,234.128"/>
					</g>
				</g>
			</g>
		</g>
		<path clip-path="url(#SVGID_26_)" fill="#F75D23" d="M165.932,198.048l37.866-21.858c1.775-1.027,3.389-1.12,4.562-0.442
			l3.835,2.23c-1.169-0.676-2.781-0.585-4.559,0.438l-37.866,21.864c-3.525,2.035-6.402,7.016-6.387,11.071l0.074,27.272
			c0.005,2.01,0.722,3.432,1.879,4.105l-3.839-2.233c-1.156-0.67-1.872-2.092-1.878-4.102l-0.079-27.27
			C159.529,205.069,162.406,200.088,165.932,198.048"/>
		<path clip-path="url(#SVGID_26_)" fill="#F98B23" d="M169.77,200.28l37.866-21.863c3.529-2.036,6.425-0.387,6.437,3.668
			l0.077,27.272c0.009,4.045-2.867,9.035-6.393,11.072l-6.648,3.838l0.229-0.133l-0.229,0.133l-1.004,0.577h0.002l-16.079,9.284
			l-2.24,1.293l-0.141,0.081l0.141-0.081l-11.898,6.873c-3.529,2.034-6.423,0.373-6.434-3.668l-0.076-27.275
			C163.368,207.297,166.244,202.315,169.77,200.28"/>
	</g>
</g>
<polygon fill="#FFFFFF" points="195.535,204.386 203.817,201.805 195.535,210.432 195.535,213.542 207.378,201.009 207.378,197.773 
	195.535,201.302 "/>
<polygon fill="#FFFFFF" points="186.619,201.226 183.161,203.572 191.373,221.44 194.831,219.095 "/>
<polygon fill="#FFFFFF" points="170.867,222.534 170.867,225.767 182.71,222.238 182.71,219.128 174.423,221.737 182.71,213.084 
	182.71,209.998 "/>
<g enable-background="new    ">
	<g>
		<defs>
			<rect id="SVGID_33_" x="386.932" y="38.968" width="27.485" height="34.149"/>
		</defs>
		<clipPath id="SVGID_34_">
			<use xlink:href="#SVGID_33_"  overflow="visible"/>
		</clipPath>
		<g clip-path="url(#SVGID_34_)">
			<defs>
				<rect id="SVGID_35_" x="397.326" y="67.45" width="1.962" height="1.14"/>
			</defs>
			<clipPath id="SVGID_36_">
				<use xlink:href="#SVGID_35_"  overflow="visible"/>
			</clipPath>
			<g clip-path="url(#SVGID_36_)">
				<defs>
					<rect id="SVGID_37_" x="397.326" y="67.45" width="1.962" height="1.14"/>
				</defs>
				<clipPath id="SVGID_38_">
					<use xlink:href="#SVGID_37_"  overflow="visible"/>
				</clipPath>
				<g clip-path="url(#SVGID_38_)" enable-background="new    ">
					<g>
						<defs>
							<rect id="SVGID_39_" x="397.326" y="67.45" width="1.962" height="1.14"/>
						</defs>
						<clipPath id="SVGID_40_">
							<use xlink:href="#SVGID_39_"  overflow="visible"/>
						</clipPath>
						<path clip-path="url(#SVGID_40_)" fill="#F75D23" d="M399.258,68.57l-1.932-1.121c0.009,0.005,0.021,0.011,0.028,0.019
							l1.932,1.123C399.276,68.585,399.267,68.577,399.258,68.57"/>
					</g>
				</g>
			</g>
		</g>
		<path clip-path="url(#SVGID_34_)" fill="#F75D23" d="M390.148,50.411l19.062-11.003c0.895-0.517,1.706-0.562,2.294-0.221
			l1.931,1.123c-0.587-0.341-1.398-0.295-2.295,0.22l-19.06,11.004c-1.773,1.026-3.222,3.532-3.215,5.572l0.037,13.728
			c0.004,1.013,0.364,1.727,0.945,2.066l-1.931-1.123c-0.584-0.337-0.944-1.053-0.947-2.064l-0.038-13.73
			C386.926,53.944,388.374,51.437,390.148,50.411"/>
		<path clip-path="url(#SVGID_34_)" fill="#F98B23" d="M392.08,51.534l19.06-11.004c1.778-1.024,3.235-0.195,3.241,1.845
			l0.038,13.727c0.006,2.038-1.44,4.549-3.218,5.575l-3.346,1.93l0.115-0.065l-0.115,0.065l-0.505,0.292l-8.093,4.672l-1.127,0.651
			l-0.07,0.042l0.07-0.042l-5.989,3.459c-1.775,1.023-3.235,0.188-3.239-1.847l-0.037-13.728
			C388.858,55.066,390.307,52.56,392.08,51.534"/>
	</g>
</g>
<polygon fill="#FFFFFF" points="405.05,53.601 409.22,52.303 405.05,56.645 405.05,58.21 411.011,51.902 411.011,50.273 
	405.05,52.048 "/>
<polygon fill="#FFFFFF" points="400.562,52.011 398.822,53.189 402.955,62.184 404.695,61.005 "/>
<polygon fill="#FFFFFF" points="392.632,62.734 392.632,64.362 398.594,62.588 398.594,61.021 394.424,62.335 398.594,57.979 
	398.594,56.425 "/>
<g enable-background="new    ">
	<g>
		<defs>
			<rect id="SVGID_41_" x="19.802" y="254.098" width="27.488" height="34.152"/>
		</defs>
		<clipPath id="SVGID_42_">
			<use xlink:href="#SVGID_41_"  overflow="visible"/>
		</clipPath>
		<g clip-path="url(#SVGID_42_)">
			<defs>
				<rect id="SVGID_43_" x="30.199" y="282.581" width="1.958" height="1.141"/>
			</defs>
			<clipPath id="SVGID_44_">
				<use xlink:href="#SVGID_43_"  overflow="visible"/>
			</clipPath>
			<g clip-path="url(#SVGID_44_)">
				<defs>
					<rect id="SVGID_45_" x="30.199" y="282.581" width="1.958" height="1.141"/>
				</defs>
				<clipPath id="SVGID_46_">
					<use xlink:href="#SVGID_45_"  overflow="visible"/>
				</clipPath>
				<g clip-path="url(#SVGID_46_)" enable-background="new    ">
					<g>
						<defs>
							<rect id="SVGID_47_" x="30.199" y="282.581" width="1.958" height="1.141"/>
						</defs>
						<clipPath id="SVGID_48_">
							<use xlink:href="#SVGID_47_"  overflow="visible"/>
						</clipPath>
						<path clip-path="url(#SVGID_48_)" fill="#F75D23" d="M32.128,283.702l-1.931-1.122c0.008,0.006,0.019,0.012,0.03,0.02
							l1.93,1.122C32.146,283.715,32.137,283.709,32.128,283.702"/>
					</g>
				</g>
			</g>
		</g>
		<path clip-path="url(#SVGID_42_)" fill="#F75D23" d="M23.021,265.542l19.06-11.003c0.895-0.518,1.705-0.563,2.295-0.22
			l1.931,1.122c-0.588-0.341-1.402-0.296-2.297,0.219l-19.057,11.005c-1.776,1.026-3.222,3.531-3.218,5.573l0.039,13.729
			c0.003,1.012,0.364,1.727,0.945,2.064l-1.933-1.123c-0.581-0.336-0.941-1.054-0.945-2.065l-0.038-13.726
			C19.795,269.075,21.245,266.567,23.021,265.542"/>
		<path clip-path="url(#SVGID_42_)" fill="#F98B23" d="M24.952,266.665l19.06-11.005c1.777-1.024,3.233-0.195,3.24,1.847
			l0.039,13.728c0.004,2.035-1.443,4.548-3.219,5.572l-3.345,1.932l0.114-0.068l-0.114,0.068l-0.505,0.291l-8.093,4.673L31,284.354
			l-0.071,0.04l0.071-0.04l-5.988,3.458c-1.775,1.024-3.234,0.189-3.238-1.846l-0.041-13.729
			C21.729,270.199,23.175,267.691,24.952,266.665"/>
	</g>
</g>
<polygon fill="#FFFFFF" points="37.921,268.732 42.09,267.434 37.921,271.774 37.921,273.342 43.882,267.033 43.882,265.404 
	37.921,267.179 "/>
<polygon fill="#FFFFFF" points="33.433,267.142 31.692,268.321 35.824,277.316 37.565,276.137 "/>
<polygon fill="#FFFFFF" points="25.503,277.865 25.503,279.494 31.465,277.719 31.465,276.152 27.294,277.466 31.465,273.11 
	31.465,271.557 "/>
<g enable-background="new    ">
	<g>
		<defs>
			<rect id="SVGID_49_" x="59.2" y="197.261" width="40.741" height="50.619"/>
		</defs>
		<clipPath id="SVGID_50_">
			<use xlink:href="#SVGID_49_"  overflow="visible"/>
		</clipPath>
		<g clip-path="url(#SVGID_50_)">
			<defs>
				<rect id="SVGID_51_" x="74.61" y="239.477" width="2.905" height="1.689"/>
			</defs>
			<clipPath id="SVGID_52_">
				<use xlink:href="#SVGID_51_"  overflow="visible"/>
			</clipPath>
			<g clip-path="url(#SVGID_52_)">
				<defs>
					<rect id="SVGID_53_" x="74.61" y="239.477" width="2.905" height="1.689"/>
				</defs>
				<clipPath id="SVGID_54_">
					<use xlink:href="#SVGID_53_"  overflow="visible"/>
				</clipPath>
				<g clip-path="url(#SVGID_54_)" enable-background="new    ">
					<g>
						<defs>
							<rect id="SVGID_55_" x="74.61" y="239.477" width="2.905" height="1.689"/>
						</defs>
						<clipPath id="SVGID_56_">
							<use xlink:href="#SVGID_55_"  overflow="visible"/>
						</clipPath>
						<path clip-path="url(#SVGID_56_)" fill="#F75D23" d="M77.47,241.139l-2.86-1.665c0.009,0.011,0.025,0.022,0.041,0.03
							l2.864,1.663C77.498,241.16,77.484,241.147,77.47,241.139"/>
					</g>
				</g>
			</g>
		</g>
		<path clip-path="url(#SVGID_50_)" fill="#F75D23" d="M63.97,214.221l28.249-16.307c1.326-0.767,2.531-0.834,3.405-0.328
			l2.863,1.663c-0.874-0.507-2.077-0.438-3.403,0.324l-28.25,16.311c-2.63,1.521-4.777,5.236-4.767,8.262l0.056,20.347
			c0.006,1.5,0.539,2.56,1.401,3.06l-2.863-1.663c-0.862-0.501-1.396-1.562-1.401-3.062L59.2,222.484
			C59.191,219.459,61.336,215.742,63.97,214.221"/>
		<path clip-path="url(#SVGID_50_)" fill="#F98B23" d="M66.833,215.885l28.25-16.31c2.632-1.519,4.792-0.289,4.802,2.737
			l0.056,20.347c0.009,3.017-2.136,6.742-4.77,8.261l-4.959,2.861l0.172-0.098l-0.172,0.098l-0.746,0.433l-11.996,6.926l-1.67,0.964
			l-0.106,0.061l0.106-0.061l-8.876,5.125c-2.632,1.521-4.794,0.281-4.802-2.734l-0.056-20.347
			C62.056,221.121,64.202,217.405,66.833,215.885"/>
	</g>
</g>
<polygon fill="#FFFFFF" points="86.056,218.95 92.235,217.023 86.056,223.46 86.056,225.781 94.892,216.429 94.892,214.016 
	86.056,216.647 "/>
<polygon fill="#FFFFFF" points="79.402,216.592 76.824,218.343 82.95,231.675 85.527,229.924 "/>
<polygon fill="#FFFFFF" points="67.651,232.488 67.651,234.901 76.483,232.269 76.483,229.949 70.304,231.895 76.483,225.439 
	76.483,223.137 "/>
<g enable-background="new    ">
	<g>
		<defs>
			<rect id="SVGID_57_" x="361.88" y="86.02" width="40.475" height="50.288"/>
		</defs>
		<clipPath id="SVGID_58_">
			<use xlink:href="#SVGID_57_"  overflow="visible"/>
		</clipPath>
		<g clip-path="url(#SVGID_58_)">
			<defs>
				<rect id="SVGID_59_" x="377.188" y="127.958" width="2.887" height="1.68"/>
			</defs>
			<clipPath id="SVGID_60_">
				<use xlink:href="#SVGID_59_"  overflow="visible"/>
			</clipPath>
			<g clip-path="url(#SVGID_60_)">
				<defs>
					<rect id="SVGID_61_" x="377.188" y="127.958" width="2.887" height="1.68"/>
				</defs>
				<clipPath id="SVGID_62_">
					<use xlink:href="#SVGID_61_"  overflow="visible"/>
				</clipPath>
				<g clip-path="url(#SVGID_62_)" enable-background="new    ">
					<g>
						<defs>
							<rect id="SVGID_63_" x="377.188" y="127.958" width="2.887" height="1.68"/>
						</defs>
						<clipPath id="SVGID_64_">
							<use xlink:href="#SVGID_63_"  overflow="visible"/>
						</clipPath>
						<path clip-path="url(#SVGID_64_)" fill="#F75D23" d="M380.03,129.612l-2.842-1.651c0.012,0.009,0.028,0.017,0.042,0.026
							l2.845,1.653C380.06,129.632,380.045,129.619,380.03,129.612"/>
					</g>
				</g>
			</g>
		</g>
		<path clip-path="url(#SVGID_58_)" fill="#F75D23" d="M366.619,102.87l28.065-16.203c1.315-0.76,2.513-0.828,3.379-0.325
			l2.845,1.652c-0.866-0.502-2.064-0.434-3.379,0.325l-28.065,16.203c-2.614,1.509-4.748,5.201-4.737,8.207l0.056,20.214
			c0.006,1.491,0.536,2.544,1.393,3.04l-2.844-1.654c-0.856-0.494-1.389-1.549-1.393-3.04l-0.059-20.211
			C361.872,108.073,364.004,104.38,366.619,102.87"/>
		<path clip-path="url(#SVGID_58_)" fill="#F98B23" d="M369.464,104.523l28.065-16.204c2.615-1.51,4.762-0.288,4.77,2.716
			l0.056,20.214c0.009,2.999-2.123,6.698-4.736,8.208l-4.926,2.842l0.171-0.096l-0.171,0.096l-0.745,0.43l-11.917,6.881
			l-1.661,0.957l-0.103,0.063l0.103-0.063l-8.817,5.092c-2.616,1.512-4.761,0.28-4.77-2.718l-0.056-20.214
			C364.716,109.724,366.85,106.031,369.464,104.523"/>
	</g>
</g>
<polygon fill="#FFFFFF" points="388.56,107.567 394.699,105.655 388.56,112.048 388.56,114.354 397.338,105.065 397.338,102.665 
	388.56,105.282 "/>
<polygon fill="#FFFFFF" points="381.952,105.226 379.388,106.962 385.476,120.209 388.036,118.468 "/>
<polygon fill="#FFFFFF" points="370.275,121.016 370.275,123.414 379.053,120.799 379.053,118.495 372.912,120.427 379.053,114.015 
	379.053,111.728 "/>
<g enable-background="new    ">
	<g>
		<defs>
			<rect id="SVGID_65_" x="82.614" y="215.234" width="37.23" height="33.33"/>
		</defs>
		<clipPath id="SVGID_66_">
			<use xlink:href="#SVGID_65_"  overflow="visible"/>
		</clipPath>
		<path clip-path="url(#SVGID_66_)" fill="#89BDDA" d="M114.651,217.611c-0.787-0.456-1.765-0.594-2.852-0.364
			c-0.671,0.143-1.387,0.422-2.128,0.851c-0.708,0.411-1.394,0.929-2.04,1.527l3.152,1.829c0.645-0.597,1.329-1.116,2.039-1.524
			c0.742-0.43,1.458-0.709,2.13-0.852c1.088-0.228,2.063-0.094,2.848,0.364L114.651,217.611z"/>
		<path clip-path="url(#SVGID_66_)" fill="#89BDDA" d="M105.366,215.781c-0.911-0.528-2.034-0.685-3.296-0.42
			c-0.777,0.164-1.604,0.489-2.461,0.984c-1.426,0.823-2.766,2.021-3.926,3.437c-2.142,2.61-3.679,5.961-4.053,9.081
			c-0.647,0.149-1.331,0.419-2.041,0.829c-1.232,0.71-2.386,1.744-3.389,2.965c-2.146,2.612-3.597,6.092-3.589,9.118
			c0.009,2.206,0.786,3.755,2.043,4.486l3.149,1.831c-1.256-0.729-2.034-2.28-2.04-4.485c-0.009-3.029,1.439-6.503,3.585-9.118
			c1.003-1.221,2.159-2.252,3.392-2.965c0.707-0.408,1.394-0.682,2.04-0.829c0.375-3.12,1.912-6.471,4.051-9.082
			c1.162-1.415,2.501-2.612,3.928-3.436c0.858-0.497,1.688-0.818,2.461-0.982c1.259-0.267,2.385-0.112,3.296,0.417L105.366,215.781z
			"/>
		<path clip-path="url(#SVGID_66_)" fill="#FFFFFF" d="M102.759,218.177c4.056-2.342,7.421-0.853,8.023,3.277
			c0.645-0.597,1.329-1.116,2.039-1.524c3.863-2.231,7.009-0.442,7.021,4.001c0.012,4.439-3.114,9.846-6.976,12.079l-20.083,11.594
			c-3.865,2.23-7.011,0.44-7.021-3.999c-0.013-4.44,3.112-9.852,6.975-12.081c0.709-0.411,1.394-0.682,2.044-0.832
			C95.358,225.884,98.701,220.518,102.759,218.177"/>
	</g>
</g>
</svg>
